<svg xmlns="http://www.w3.org/2000/svg" width="512" height="640" viewBox="0 0 512 640"><path d="M 232.0 74.0 L 233.3 90.4 " fill="none" stroke="#000" stroke-width="1" stroke-linecap="round"/><path d="M 252.5 83.7 L 263.6 72.3 M 252.5 83.7 L 266.5 71.9 M 252.5 83.7 L 252.7 92.6 M 252.5 83.7 L 257.3 87.8 " fill="none" stroke="#000" stroke-width="1" stroke-linecap="round"/><path d="M 263.6 72.3 L 266.5 71.9 M 263.6 72.3 L 257.3 87.8 " fill="none" stroke="#000" stroke-width="1" stroke-linecap="round"/><path d="M 266.5 71.9 L 257.3 87.8 " fill="none" stroke="#000" stroke-width="1" stroke-linecap="round"/><path d="M 292.1 79.9 L 302.0 81.4 M 292.1 79.9 L 278.6 91.4 M 292.1 79.9 L 282.2 89.3 M 292.1 79.9 L 299.1 90.7 " fill="none" stroke="#000" stroke-width="1" stroke-linecap="round"/><path d="M 302.0 81.4 L 299.1 90.7 M 302.0 81.4 L 315.6 93.9 M 302.0 81.4 L 302.5 100.6 " fill="none" stroke="#000" stroke-width="1" stroke-linecap="round"/><path d="M 222.0 93.7 L 233.3 90.4 M 222.0 93.7 L 206.1 99.8 M 222.0 93.7 L 226.8 99.3 M 222.0 93.7 L 237.9 101.0 " fill="none" stroke="#000" stroke-width="1" stroke-linecap="round"/><path d="M 233.3 90.4 L 226.8 99.3 M 233.3 90.4 L 237.9 101.0 M 233.3 90.4 L 248.3 100.3 " fill="none" stroke="#000" stroke-width="1" stroke-linecap="round"/><path d="M 252.7 92.6 L 257.3 87.8 M 252.7 92.6 L 237.9 101.0 M 252.7 92.6 L 248.3 100.3 M 252.7 92.6 L 264.0 105.8 " fill="none" stroke="#000" stroke-width="1" stroke-linecap="round"/><path d="M 257.3 87.8 L 248.3 100.3 M 257.3 87.8 L 264.0 105.8 " fill="none" stroke="#000" stroke-width="1" stroke-linecap="round"/><path d="M 278.6 91.4 L 282.2 89.3 M 278.6 91.4 L 272.2 106.3 M 278.6 91.4 L 281.2 98.8 " fill="none" stroke="#000" stroke-width="1" stroke-linecap="round"/><path d="M 282.2 89.3 L 299.1 90.7 M 282.2 89.3 L 281.2 98.8 " fill="none" stroke="#000" stroke-width="1" stroke-linecap="round"/><path d="M 299.1 90.7 L 315.6 93.9 M 299.1 90.7 L 302.5 100.6 " fill="none" stroke="#000" stroke-width="1" stroke-linecap="round"/><path d="M 315.6 93.9 L 321.4 92.0 M 315.6 93.9 L 302.5 100.6 M 315.6 93.9 L 308.7 109.9 M 315.6 93.9 L 323.2 106.1 " fill="none" stroke="#000" stroke-width="1" stroke-linecap="round"/><path d="M 321.4 92.0 L 323.2 106.1 M 321.4 92.0 L 333.8 102.6 " fill="none" stroke="#000" stroke-width="1" stroke-linecap="round"/><path d="M 206.1 99.8 L 205.4 118.0 " fill="none" stroke="#000" stroke-width="1" stroke-linecap="round"/><path d="M 226.8 99.3 L 237.9 101.0 " fill="none" stroke="#000" stroke-width="1" stroke-linecap="round"/><path d="M 237.9 101.0 L 248.3 100.3 M 237.9 101.0 L 240.2 117.0 " fill="none" stroke="#000" stroke-width="1" stroke-linecap="round"/><path d="M 248.3 100.3 L 264.0 105.8 M 248.3 100.3 L 240.2 117.0 " fill="none" stroke="#000" stroke-width="1" stroke-linecap="round"/><path d="M 264.0 105.8 L 272.2 106.3 M 264.0 105.8 L 281.2 98.8 M 264.0 105.8 L 259.2 118.2 M 264.0 105.8 L 271.0 115.9 " fill="none" stroke="#000" stroke-width="1" stroke-linecap="round"/><path d="M 272.2 106.3 L 281.2 98.8 M 272.2 106.3 L 259.2 118.2 M 272.2 106.3 L 271.0 115.9 M 272.2 106.3 L 272.6 125.3 " fill="none" stroke="#000" stroke-width="1" stroke-linecap="round"/><path d="M 302.5 100.6 L 308.7 109.9 M 302.5 100.6 L 304.1 117.0 " fill="none" stroke="#000" stroke-width="1" stroke-linecap="round"/><path d="M 308.7 109.9 L 323.2 106.1 M 308.7 109.9 L 304.1 117.0 M 308.7 109.9 L 318.3 115.0 M 308.7 109.9 L 320.5 115.9 " fill="none" stroke="#000" stroke-width="1" stroke-linecap="round"/><path d="M 323.2 106.1 L 333.8 102.6 M 323.2 106.1 L 318.3 115.0 M 323.2 106.1 L 320.5 115.9 M 323.2 106.1 L 340.9 111.5 " fill="none" stroke="#000" stroke-width="1" stroke-linecap="round"/><path d="M 333.8 102.6 L 320.5 115.9 M 333.8 102.6 L 340.9 111.5 " fill="none" stroke="#000" stroke-width="1" stroke-linecap="round"/><path d="M 196.3 118.3 L 205.4 118.0 M 196.3 118.3 L 198.3 124.4 M 196.3 118.3 L 201.9 135.7 " fill="none" stroke="#000" stroke-width="1" stroke-linecap="round"/><path d="M 205.4 118.0 L 219.2 121.9 M 205.4 118.0 L 198.3 124.4 M 205.4 118.0 L 201.9 135.7 M 205.4 118.0 L 217.0 128.0 " fill="none" stroke="#000" stroke-width="1" stroke-linecap="round"/><path d="M 219.2 121.9 L 217.0 128.0 M 219.2 121.9 L 233.3 126.5 " fill="none" stroke="#000" stroke-width="1" stroke-linecap="round"/><path d="M 240.2 117.0 L 244.8 122.8 M 240.2 117.0 L 259.2 118.2 M 240.2 117.0 L 233.3 126.5 " fill="none" stroke="#000" stroke-width="1" stroke-linecap="round"/><path d="M 244.8 122.8 L 259.2 118.2 M 244.8 122.8 L 233.3 126.5 M 244.8 122.8 L 251.9 135.5 M 244.8 122.8 L 260.9 128.8 " fill="none" stroke="#000" stroke-width="1" stroke-linecap="round"/><path d="M 259.2 118.2 L 271.0 115.9 M 259.2 118.2 L 251.9 135.5 M 259.2 118.2 L 260.9 128.8 M 259.2 118.2 L 272.6 125.3 " fill="none" stroke="#000" stroke-width="1" stroke-linecap="round"/><path d="M 271.0 115.9 L 260.9 128.8 M 271.0 115.9 L 272.6 125.3 " fill="none" stroke="#000" stroke-width="1" stroke-linecap="round"/><path d="M 291.1 123.4 L 304.1 117.0 M 291.1 123.4 L 272.6 125.3 M 291.1 123.4 L 285.9 129.3 M 291.1 123.4 L 293.9 131.5 " fill="none" stroke="#000" stroke-width="1" stroke-linecap="round"/><path d="M 304.1 117.0 L 318.3 115.0 M 304.1 117.0 L 320.5 115.9 M 304.1 117.0 L 293.9 131.5 M 304.1 117.0 L 314.0 133.6 " fill="none" stroke="#000" stroke-width="1" stroke-linecap="round"/><path d="M 318.3 115.0 L 320.5 115.9 M 318.3 115.0 L 314.0 133.6 M 318.3 115.0 L 320.8 125.7 " fill="none" stroke="#000" stroke-width="1" stroke-linecap="round"/><path d="M 320.5 115.9 L 314.0 133.6 M 320.5 115.9 L 320.8 125.7 " fill="none" stroke="#000" stroke-width="1" stroke-linecap="round"/><path d="M 340.9 111.5 L 353.8 114.5 M 340.9 111.5 L 336.6 127.8 " fill="none" stroke="#000" stroke-width="1" stroke-linecap="round"/><path d="M 353.8 114.5 L 347.2 131.3 " fill="none" stroke="#000" stroke-width="1" stroke-linecap="round"/><path d="M 183.3 135.7 L 198.3 124.4 M 183.3 135.7 L 201.9 135.7 M 183.3 135.7 L 178.7 145.0 M 183.3 135.7 L 191.2 138.7 " fill="none" stroke="#000" stroke-width="1" stroke-linecap="round"/><path d="M 198.3 124.4 L 201.9 135.7 M 198.3 124.4 L 217.0 128.0 M 198.3 124.4 L 191.2 138.7 M 198.3 124.4 L 205.5 139.7 " fill="none" stroke="#000" stroke-width="1" stroke-linecap="round"/><path d="M 201.9 135.7 L 217.0 128.0 M 201.9 135.7 L 191.2 138.7 M 201.9 135.7 L 205.5 139.7 M 201.9 135.7 L 217.3 143.4 " fill="none" stroke="#000" stroke-width="1" stroke-linecap="round"/><path d="M 217.0 128.0 L 233.3 126.5 M 217.0 128.0 L 205.5 139.7 M 217.0 128.0 L 217.3 143.4 " fill="none" stroke="#000" stroke-width="1" stroke-linecap="round"/><path d="M 233.3 126.5 L 239.3 141.2 " fill="none" stroke="#000" stroke-width="1" stroke-linecap="round"/><path d="M 251.9 135.5 L 260.9 128.8 M 251.9 135.5 L 239.3 141.2 M 251.9 135.5 L 241.0 148.3 M 251.9 135.5 L 258.9 137.4 " fill="none" stroke="#000" stroke-width="1" stroke-linecap="round"/><path d="M 260.9 128.8 L 272.6 125.3 M 260.9 128.8 L 258.9 137.4 " fill="none" stroke="#000" stroke-width="1" stroke-linecap="round"/><path d="M 272.6 125.3 L 285.9 129.3 M 272.6 125.3 L 258.9 137.4 " fill="none" stroke="#000" stroke-width="1" stroke-linecap="round"/><path d="M 285.9 129.3 L 293.9 131.5 M 285.9 129.3 L 277.8 145.2 M 285.9 129.3 L 290.5 146.3 " fill="none" stroke="#000" stroke-width="1" stroke-linecap="round"/><path d="M 293.9 131.5 L 290.5 146.3 M 293.9 131.5 L 305.2 145.7 " fill="none" stroke="#000" stroke-width="1" stroke-linecap="round"/><path d="M 314.0 133.6 L 320.8 125.7 M 314.0 133.6 L 305.2 145.7 M 314.0 133.6 L 310.8 146.6 M 314.0 133.6 L 323.6 139.7 " fill="none" stroke="#000" stroke-width="1" stroke-linecap="round"/><path d="M 320.8 125.7 L 336.6 127.8 M 320.8 125.7 L 323.6 139.7 " fill="none" stroke="#000" stroke-width="1" stroke-linecap="round"/><path d="M 336.6 127.8 L 347.2 131.3 M 336.6 127.8 L 323.6 139.7 M 336.6 127.8 L 335.3 146.7 " fill="none" stroke="#000" stroke-width="1" stroke-linecap="round"/><path d="M 347.2 131.3 L 335.3 146.7 M 347.2 131.3 L 351.0 146.9 M 347.2 131.3 L 346.3 149.6 " fill="none" stroke="#000" stroke-width="1" stroke-linecap="round"/><path d="M 178.7 145.0 L 191.2 138.7 M 178.7 145.0 L 165.8 157.5 M 178.7 145.0 L 182.6 151.6 " fill="none" stroke="#000" stroke-width="1" stroke-linecap="round"/><path d="M 191.2 138.7 L 205.5 139.7 M 191.2 138.7 L 182.6 151.6 " fill="none" stroke="#000" stroke-width="1" stroke-linecap="round"/><path d="M 205.5 139.7 L 217.3 143.4 M 205.5 139.7 L 217.2 152.8 " fill="none" stroke="#000" stroke-width="1" stroke-linecap="round"/><path d="M 217.3 143.4 L 212.6 160.3 M 217.3 143.4 L 217.2 152.8 M 217.3 143.4 L 234.1 151.6 " fill="none" stroke="#000" stroke-width="1" stroke-linecap="round"/><path d="M 239.3 141.2 L 241.0 148.3 M 239.3 141.2 L 234.1 151.6 M 239.3 141.2 L 250.1 149.7 " fill="none" stroke="#000" stroke-width="1" stroke-linecap="round"/><path d="M 241.0 148.3 L 234.1 151.6 M 241.0 148.3 L 250.1 149.7 M 241.0 148.3 L 259.2 150.0 M 241.0 148.3 L 251.9 164.1 " fill="none" stroke="#000" stroke-width="1" stroke-linecap="round"/><path d="M 258.9 137.4 L 250.1 149.7 M 258.9 137.4 L 259.2 150.0 " fill="none" stroke="#000" stroke-width="1" stroke-linecap="round"/><path d="M 277.8 145.2 L 290.5 146.3 M 277.8 145.2 L 259.2 150.0 M 277.8 145.2 L 267.1 158.4 M 277.8 145.2 L 285.4 150.8 " fill="none" stroke="#000" stroke-width="1" stroke-linecap="round"/><path d="M 290.5 146.3 L 305.2 145.7 M 290.5 146.3 L 285.4 150.8 M 290.5 146.3 L 301.2 161.9 M 290.5 146.3 L 296.5 162.9 " fill="none" stroke="#000" stroke-width="1" stroke-linecap="round"/><path d="M 305.2 145.7 L 310.8 146.6 M 305.2 145.7 L 323.6 139.7 M 305.2 145.7 L 301.2 161.9 M 305.2 145.7 L 313.7 158.2 " fill="none" stroke="#000" stroke-width="1" stroke-linecap="round"/><path d="M 310.8 146.6 L 323.6 139.7 M 310.8 146.6 L 301.2 161.9 M 310.8 146.6 L 313.7 158.2 M 310.8 146.6 L 318.5 156.8 " fill="none" stroke="#000" stroke-width="1" stroke-linecap="round"/><path d="M 323.6 139.7 L 335.3 146.7 M 323.6 139.7 L 318.5 156.8 " fill="none" stroke="#000" stroke-width="1" stroke-linecap="round"/><path d="M 335.3 146.7 L 351.0 146.9 M 335.3 146.7 L 343.7 161.3 M 335.3 146.7 L 346.3 149.6 " fill="none" stroke="#000" stroke-width="1" stroke-linecap="round"/><path d="M 351.0 146.9 L 343.7 161.3 M 351.0 146.9 L 346.3 149.6 M 351.0 146.9 L 358.3 152.0 " fill="none" stroke="#000" stroke-width="1" stroke-linecap="round"/><path d="M 165.8 157.5 L 182.6 151.6 M 165.8 157.5 L 173.3 174.2 " fill="none" stroke="#000" stroke-width="1" stroke-linecap="round"/><path d="M 182.6 151.6 L 198.6 162.2 M 182.6 151.6 L 194.3 165.7 " fill="none" stroke="#000" stroke-width="1" stroke-linecap="round"/><path d="M 198.6 162.2 L 212.6 160.3 M 198.6 162.2 L 194.3 165.7 M 198.6 162.2 L 203.6 163.3 " fill="none" stroke="#000" stroke-width="1" stroke-linecap="round"/><path d="M 212.6 160.3 L 217.2 152.8 M 212.6 160.3 L 194.3 165.7 M 212.6 160.3 L 203.6 163.3 M 212.6 160.3 L 224.1 171.9 " fill="none" stroke="#000" stroke-width="1" stroke-linecap="round"/><path d="M 217.2 152.8 L 234.1 151.6 M 217.2 152.8 L 203.6 163.3 " fill="none" stroke="#000" stroke-width="1" stroke-linecap="round"/><path d="M 234.1 151.6 L 250.1 149.7 " fill="none" stroke="#000" stroke-width="1" stroke-linecap="round"/><path d="M 250.1 149.7 L 259.2 150.0 M 250.1 149.7 L 267.1 158.4 M 250.1 149.7 L 251.9 164.1 " fill="none" stroke="#000" stroke-width="1" stroke-linecap="round"/><path d="M 259.2 150.0 L 267.1 158.4 M 259.2 150.0 L 251.9 164.1 " fill="none" stroke="#000" stroke-width="1" stroke-linecap="round"/><path d="M 267.1 158.4 L 251.9 164.1 M 267.1 158.4 L 262.3 171.1 M 267.1 158.4 L 270.1 168.1 M 267.1 158.4 L 263.5 176.3 " fill="none" stroke="#000" stroke-width="1" stroke-linecap="round"/><path d="M 285.4 150.8 L 301.2 161.9 M 285.4 150.8 L 296.5 162.9 " fill="none" stroke="#000" stroke-width="1" stroke-linecap="round"/><path d="M 301.2 161.9 L 313.7 158.2 M 301.2 161.9 L 318.5 156.8 M 301.2 161.9 L 296.5 162.9 M 301.2 161.9 L 307.6 173.6 " fill="none" stroke="#000" stroke-width="1" stroke-linecap="round"/><path d="M 313.7 158.2 L 318.5 156.8 M 313.7 158.2 L 296.5 162.9 M 313.7 158.2 L 307.6 173.6 M 313.7 158.2 L 319.8 172.8 " fill="none" stroke="#000" stroke-width="1" stroke-linecap="round"/><path d="M 318.5 156.8 L 319.8 172.8 " fill="none" stroke="#000" stroke-width="1" stroke-linecap="round"/><path d="M 343.7 161.3 L 346.3 149.6 M 343.7 161.3 L 358.3 152.0 M 343.7 161.3 L 337.1 171.5 M 343.7 161.3 L 355.1 173.5 " fill="none" stroke="#000" stroke-width="1" stroke-linecap="round"/><path d="M 346.3 149.6 L 358.3 152.0 " fill="none" stroke="#000" stroke-width="1" stroke-linecap="round"/><path d="M 358.3 152.0 L 358.1 167.2 " fill="none" stroke="#000" stroke-width="1" stroke-linecap="round"/><path d="M 173.3 174.2 L 180.8 171.3 M 173.3 174.2 L 162.6 183.9 M 173.3 174.2 L 176.4 181.1 M 173.3 174.2 L 170.9 188.6 " fill="none" stroke="#000" stroke-width="1" stroke-linecap="round"/><path d="M 180.8 171.3 L 194.3 165.7 M 180.8 171.3 L 176.4 181.1 M 180.8 171.3 L 192.4 181.2 " fill="none" stroke="#000" stroke-width="1" stroke-linecap="round"/><path d="M 194.3 165.7 L 203.6 163.3 M 194.3 165.7 L 192.4 181.2 " fill="none" stroke="#000" stroke-width="1" stroke-linecap="round"/><path d="M 224.1 171.9 L 239.5 171.6 M 224.1 171.9 L 225.7 186.2 " fill="none" stroke="#000" stroke-width="1" stroke-linecap="round"/><path d="M 239.5 171.6 L 251.9 164.1 " fill="none" stroke="#000" stroke-width="1" stroke-linecap="round"/><path d="M 251.9 164.1 L 262.3 171.1 M 251.9 164.1 L 270.1 168.1 M 251.9 164.1 L 263.5 176.3 " fill="none" stroke="#000" stroke-width="1" stroke-linecap="round"/><path d="M 262.3 171.1 L 270.1 168.1 M 262.3 171.1 L 263.5 176.3 M 262.3 171.1 L 274.3 184.7 " fill="none" stroke="#000" stroke-width="1" stroke-linecap="round"/><path d="M 270.1 168.1 L 283.2 175.4 M 270.1 168.1 L 263.5 176.3 M 270.1 168.1 L 274.3 184.7 " fill="none" stroke="#000" stroke-width="1" stroke-linecap="round"/><path d="M 283.2 175.4 L 296.5 162.9 M 283.2 175.4 L 274.3 184.7 M 283.2 175.4 L 288.0 185.7 M 283.2 175.4 L 292.8 185.1 " fill="none" stroke="#000" stroke-width="1" stroke-linecap="round"/><path d="M 296.5 162.9 L 307.6 173.6 " fill="none" stroke="#000" stroke-width="1" stroke-linecap="round"/><path d="M 307.6 173.6 L 319.8 172.8 M 307.6 173.6 L 292.8 185.1 M 307.6 173.6 L 312.7 176.4 M 307.6 173.6 L 319.2 177.3 " fill="none" stroke="#000" stroke-width="1" stroke-linecap="round"/><path d="M 319.8 172.8 L 337.1 171.5 M 319.8 172.8 L 312.7 176.4 M 319.8 172.8 L 319.2 177.3 M 319.8 172.8 L 328.3 190.1 " fill="none" stroke="#000" stroke-width="1" stroke-linecap="round"/><path d="M 337.1 171.5 L 355.1 173.5 M 337.1 171.5 L 319.2 177.3 M 337.1 171.5 L 340.3 181.0 " fill="none" stroke="#000" stroke-width="1" stroke-linecap="round"/><path d="M 355.1 173.5 L 358.1 167.2 M 355.1 173.5 L 340.3 181.0 M 355.1 173.5 L 357.0 185.4 M 355.1 173.5 L 368.0 177.3 " fill="none" stroke="#000" stroke-width="1" stroke-linecap="round"/><path d="M 358.1 167.2 L 357.0 185.4 M 358.1 167.2 L 368.0 177.3 " fill="none" stroke="#000" stroke-width="1" stroke-linecap="round"/><path d="M 162.6 183.9 L 176.4 181.1 M 162.6 183.9 L 154.6 194.7 M 162.6 183.9 L 170.9 188.6 M 162.6 183.9 L 176.5 190.7 " fill="none" stroke="#000" stroke-width="1" stroke-linecap="round"/><path d="M 176.4 181.1 L 192.4 181.2 M 176.4 181.1 L 170.9 188.6 M 176.4 181.1 L 176.5 190.7 " fill="none" stroke="#000" stroke-width="1" stroke-linecap="round"/><path d="M 192.4 181.2 L 208.0 187.9 M 192.4 181.2 L 176.5 190.7 M 192.4 181.2 L 199.8 188.6 " fill="none" stroke="#000" stroke-width="1" stroke-linecap="round"/><path d="M 208.0 187.9 L 225.7 186.2 M 208.0 187.9 L 199.8 188.6 M 208.0 187.9 L 201.2 206.0 " fill="none" stroke="#000" stroke-width="1" stroke-linecap="round"/><path d="M 263.5 176.3 L 274.3 184.7 " fill="none" stroke="#000" stroke-width="1" stroke-linecap="round"/><path d="M 274.3 184.7 L 288.0 185.7 M 274.3 184.7 L 292.8 185.1 M 274.3 184.7 L 269.2 200.5 M 274.3 184.7 L 284.8 199.3 " fill="none" stroke="#000" stroke-width="1" stroke-linecap="round"/><path d="M 288.0 185.7 L 292.8 185.1 M 288.0 185.7 L 284.8 199.3 M 288.0 185.7 L 302.3 192.3 M 288.0 185.7 L 286.1 204.9 " fill="none" stroke="#000" stroke-width="1" stroke-linecap="round"/><path d="M 292.8 185.1 L 284.8 199.3 M 292.8 185.1 L 302.3 192.3 M 292.8 185.1 L 308.4 195.8 M 292.8 185.1 L 302.0 202.2 " fill="none" stroke="#000" stroke-width="1" stroke-linecap="round"/><path d="M 312.7 176.4 L 319.2 177.3 M 312.7 176.4 L 302.3 192.3 " fill="none" stroke="#000" stroke-width="1" stroke-linecap="round"/><path d="M 319.2 177.3 L 328.3 190.1 " fill="none" stroke="#000" stroke-width="1" stroke-linecap="round"/><path d="M 340.3 181.0 L 357.0 185.4 M 340.3 181.0 L 328.3 190.1 M 340.3 181.0 L 343.1 191.9 M 340.3 181.0 L 350.6 196.0 " fill="none" stroke="#000" stroke-width="1" stroke-linecap="round"/><path d="M 357.0 185.4 L 368.0 177.3 M 357.0 185.4 L 343.1 191.9 M 357.0 185.4 L 350.6 196.0 M 357.0 185.4 L 360.7 199.6 " fill="none" stroke="#000" stroke-width="1" stroke-linecap="round"/><path d="M 154.6 194.7 L 170.9 188.6 M 154.6 194.7 L 161.2 208.7 M 154.6 194.7 L 168.4 203.7 " fill="none" stroke="#000" stroke-width="1" stroke-linecap="round"/><path d="M 170.9 188.6 L 176.5 190.7 M 170.9 188.6 L 168.4 203.7 " fill="none" stroke="#000" stroke-width="1" stroke-linecap="round"/><path d="M 176.5 190.7 L 168.4 203.7 M 176.5 190.7 L 178.8 207.6 " fill="none" stroke="#000" stroke-width="1" stroke-linecap="round"/><path d="M 199.8 188.6 L 201.2 206.0 " fill="none" stroke="#000" stroke-width="1" stroke-linecap="round"/><path d="M 269.2 200.5 L 284.8 199.3 M 269.2 200.5 L 286.1 204.9 " fill="none" stroke="#000" stroke-width="1" stroke-linecap="round"/><path d="M 284.8 199.3 L 302.3 192.3 M 284.8 199.3 L 286.1 204.9 M 284.8 199.3 L 302.0 202.2 " fill="none" stroke="#000" stroke-width="1" stroke-linecap="round"/><path d="M 302.3 192.3 L 308.4 195.8 M 302.3 192.3 L 302.0 202.2 M 302.3 192.3 L 306.7 203.7 " fill="none" stroke="#000" stroke-width="1" stroke-linecap="round"/><path d="M 308.4 195.8 L 302.0 202.2 M 308.4 195.8 L 306.7 203.7 " fill="none" stroke="#000" stroke-width="1" stroke-linecap="round"/><path d="M 328.3 190.1 L 343.1 191.9 M 328.3 190.1 L 332.4 204.6 " fill="none" stroke="#000" stroke-width="1" stroke-linecap="round"/><path d="M 343.1 191.9 L 350.6 196.0 M 343.1 191.9 L 360.7 199.6 M 343.1 191.9 L 332.4 204.6 M 343.1 191.9 L 345.1 208.7 " fill="none" stroke="#000" stroke-width="1" stroke-linecap="round"/><path d="M 350.6 196.0 L 360.7 199.6 M 350.6 196.0 L 345.1 208.7 M 350.6 196.0 L 358.9 206.8 " fill="none" stroke="#000" stroke-width="1" stroke-linecap="round"/><path d="M 360.7 199.6 L 379.2 198.0 M 360.7 199.6 L 345.1 208.7 M 360.7 199.6 L 358.9 206.8 " fill="none" stroke="#000" stroke-width="1" stroke-linecap="round"/><path d="M 379.2 198.0 L 381.2 211.2 M 379.2 198.0 L 374.3 216.1 " fill="none" stroke="#000" stroke-width="1" stroke-linecap="round"/><path d="M 161.2 208.7 L 168.4 203.7 M 161.2 208.7 L 178.8 207.6 M 161.2 208.7 L 163.9 222.4 " fill="none" stroke="#000" stroke-width="1" stroke-linecap="round"/><path d="M 168.4 203.7 L 178.8 207.6 M 168.4 203.7 L 163.9 222.4 " fill="none" stroke="#000" stroke-width="1" stroke-linecap="round"/><path d="M 178.8 207.6 L 186.9 221.1 M 178.8 207.6 L 192.2 218.7 " fill="none" stroke="#000" stroke-width="1" stroke-linecap="round"/><path d="M 201.2 206.0 L 192.2 218.7 " fill="none" stroke="#000" stroke-width="1" stroke-linecap="round"/><path d="M 286.1 204.9 L 302.0 202.2 " fill="none" stroke="#000" stroke-width="1" stroke-linecap="round"/><path d="M 302.0 202.2 L 306.7 203.7 " fill="none" stroke="#000" stroke-width="1" stroke-linecap="round"/><path d="M 306.7 203.7 L 324.2 210.6 " fill="none" stroke="#000" stroke-width="1" stroke-linecap="round"/><path d="M 324.2 210.6 L 332.4 204.6 M 324.2 210.6 L 324.7 225.1 M 324.2 210.6 L 332.9 216.7 " fill="none" stroke="#000" stroke-width="1" stroke-linecap="round"/><path d="M 332.4 204.6 L 345.1 208.7 M 332.4 204.6 L 332.9 216.7 " fill="none" stroke="#000" stroke-width="1" stroke-linecap="round"/><path d="M 345.1 208.7 L 358.9 206.8 M 345.1 208.7 L 332.9 216.7 M 345.1 208.7 L 352.3 219.1 " fill="none" stroke="#000" stroke-width="1" stroke-linecap="round"/><path d="M 358.9 206.8 L 352.3 219.1 M 358.9 206.8 L 366.3 222.7 M 358.9 206.8 L 374.3 216.1 " fill="none" stroke="#000" stroke-width="1" stroke-linecap="round"/><path d="M 381.2 211.2 L 366.3 222.7 M 381.2 211.2 L 374.3 216.1 " fill="none" stroke="#000" stroke-width="1" stroke-linecap="round"/><path d="M 163.9 222.4 L 168.4 236.0 " fill="none" stroke="#000" stroke-width="1" stroke-linecap="round"/><path d="M 186.9 221.1 L 192.2 218.7 M 186.9 221.1 L 185.5 232.7 " fill="none" stroke="#000" stroke-width="1" stroke-linecap="round"/><path d="M 192.2 218.7 L 185.5 232.7 " fill="none" stroke="#000" stroke-width="1" stroke-linecap="round"/><path d="M 324.7 225.1 L 332.9 216.7 M 324.7 225.1 L 318.6 230.7 M 324.7 225.1 L 333.9 238.3 " fill="none" stroke="#000" stroke-width="1" stroke-linecap="round"/><path d="M 332.9 216.7 L 345.7 228.9 " fill="none" stroke="#000" stroke-width="1" stroke-linecap="round"/><path d="M 352.3 219.1 L 366.3 222.7 M 352.3 219.1 L 345.7 228.9 " fill="none" stroke="#000" stroke-width="1" stroke-linecap="round"/><path d="M 366.3 222.7 L 374.3 216.1 M 366.3 222.7 L 368.6 230.0 M 366.3 222.7 L 372.7 235.4 " fill="none" stroke="#000" stroke-width="1" stroke-linecap="round"/><path d="M 374.3 216.1 L 368.6 230.0 M 374.3 216.1 L 372.7 235.4 " fill="none" stroke="#000" stroke-width="1" stroke-linecap="round"/><path d="M 168.4 236.0 L 185.5 232.7 M 168.4 236.0 L 170.9 252.4 M 168.4 236.0 L 185.5 240.9 M 168.4 236.0 L 163.0 253.7 " fill="none" stroke="#000" stroke-width="1" stroke-linecap="round"/><path d="M 185.5 232.7 L 185.5 240.9 M 185.5 232.7 L 194.6 249.4 " fill="none" stroke="#000" stroke-width="1" stroke-linecap="round"/><path d="M 289.9 236.2 L 288.8 245.6 M 289.9 236.2 L 300.9 249.8 M 289.9 236.2 L 283.7 254.2 " fill="none" stroke="#000" stroke-width="1" stroke-linecap="round"/><path d="M 318.6 230.7 L 333.9 238.3 M 318.6 230.7 L 309.0 247.5 " fill="none" stroke="#000" stroke-width="1" stroke-linecap="round"/><path d="M 333.9 238.3 L 345.7 228.9 M 333.9 238.3 L 323.5 250.5 M 333.9 238.3 L 336.9 245.9 " fill="none" stroke="#000" stroke-width="1" stroke-linecap="round"/><path d="M 345.7 228.9 L 336.9 245.9 " fill="none" stroke="#000" stroke-width="1" stroke-linecap="round"/><path d="M 368.6 230.0 L 372.7 235.4 " fill="none" stroke="#000" stroke-width="1" stroke-linecap="round"/><path d="M 170.9 252.4 L 185.5 240.9 M 170.9 252.4 L 163.0 253.7 M 170.9 252.4 L 184.4 254.3 " fill="none" stroke="#000" stroke-width="1" stroke-linecap="round"/><path d="M 185.5 240.9 L 194.6 249.4 M 185.5 240.9 L 184.4 254.3 " fill="none" stroke="#000" stroke-width="1" stroke-linecap="round"/><path d="M 194.6 249.4 L 184.4 254.3 M 194.6 249.4 L 189.8 264.7 M 194.6 249.4 L 188.7 266.7 " fill="none" stroke="#000" stroke-width="1" stroke-linecap="round"/><path d="M 263.8 252.2 L 270.2 243.8 " fill="none" stroke="#000" stroke-width="1" stroke-linecap="round"/><path d="M 270.2 243.8 L 288.8 245.6 M 270.2 243.8 L 283.7 254.2 " fill="none" stroke="#000" stroke-width="1" stroke-linecap="round"/><path d="M 288.8 245.6 L 300.9 249.8 M 288.8 245.6 L 283.7 254.2 " fill="none" stroke="#000" stroke-width="1" stroke-linecap="round"/><path d="M 300.9 249.8 L 309.0 247.5 M 300.9 249.8 L 283.7 254.2 " fill="none" stroke="#000" stroke-width="1" stroke-linecap="round"/><path d="M 309.0 247.5 L 323.5 250.5 M 309.0 247.5 L 316.6 262.1 " fill="none" stroke="#000" stroke-width="1" stroke-linecap="round"/><path d="M 323.5 250.5 L 336.9 245.9 M 323.5 250.5 L 316.6 262.1 M 323.5 250.5 L 328.4 266.0 " fill="none" stroke="#000" stroke-width="1" stroke-linecap="round"/><path d="M 336.9 245.9 L 355.0 251.3 " fill="none" stroke="#000" stroke-width="1" stroke-linecap="round"/><path d="M 355.0 251.3 L 358.5 253.0 M 355.0 251.3 L 352.8 260.5 M 355.0 251.3 L 368.9 257.6 M 355.0 251.3 L 354.5 270.3 " fill="none" stroke="#000" stroke-width="1" stroke-linecap="round"/><path d="M 358.5 253.0 L 352.8 260.5 M 358.5 253.0 L 368.9 257.6 M 358.5 253.0 L 354.5 270.3 " fill="none" stroke="#000" stroke-width="1" stroke-linecap="round"/><path d="M 184.4 254.3 L 189.8 264.7 M 184.4 254.3 L 188.7 266.7 " fill="none" stroke="#000" stroke-width="1" stroke-linecap="round"/><path d="M 189.8 264.7 L 188.7 266.7 M 189.8 264.7 L 205.0 272.6 " fill="none" stroke="#000" stroke-width="1" stroke-linecap="round"/><path d="M 316.6 262.1 L 328.4 266.0 M 316.6 262.1 L 304.1 272.8 M 316.6 262.1 L 308.3 271.5 M 316.6 262.1 L 326.0 277.9 " fill="none" stroke="#000" stroke-width="1" stroke-linecap="round"/><path d="M 328.4 266.0 L 339.4 265.8 M 328.4 266.0 L 326.0 277.9 M 328.4 266.0 L 335.8 278.8 M 328.4 266.0 L 332.1 281.3 " fill="none" stroke="#000" stroke-width="1" stroke-linecap="round"/><path d="M 339.4 265.8 L 352.8 260.5 M 339.4 265.8 L 326.0 277.9 M 339.4 265.8 L 335.8 278.8 M 339.4 265.8 L 354.5 270.3 " fill="none" stroke="#000" stroke-width="1" stroke-linecap="round"/><path d="M 352.8 260.5 L 368.9 257.6 M 352.8 260.5 L 354.5 270.3 " fill="none" stroke="#000" stroke-width="1" stroke-linecap="round"/><path d="M 368.9 257.6 L 354.5 270.3 " fill="none" stroke="#000" stroke-width="1" stroke-linecap="round"/><path d="M 188.7 266.7 L 205.0 272.6 " fill="none" stroke="#000" stroke-width="1" stroke-linecap="round"/><path d="M 205.0 272.6 L 210.3 284.7 M 205.0 272.6 L 216.2 286.8 " fill="none" stroke="#000" stroke-width="1" stroke-linecap="round"/><path d="M 304.1 272.8 L 308.3 271.5 M 304.1 272.8 L 294.8 285.8 M 304.1 272.8 L 310.3 284.2 " fill="none" stroke="#000" stroke-width="1" stroke-linecap="round"/><path d="M 308.3 271.5 L 326.0 277.9 M 308.3 271.5 L 310.3 284.2 " fill="none" stroke="#000" stroke-width="1" stroke-linecap="round"/><path d="M 326.0 277.9 L 335.8 278.8 M 326.0 277.9 L 310.3 284.2 M 326.0 277.9 L 319.2 289.3 M 326.0 277.9 L 332.1 281.3 " fill="none" stroke="#000" stroke-width="1" stroke-linecap="round"/><path d="M 335.8 278.8 L 332.1 281.3 " fill="none" stroke="#000" stroke-width="1" stroke-linecap="round"/><path d="M 210.3 284.7 L 216.2 286.8 M 210.3 284.7 L 198.4 297.4 M 210.3 284.7 L 212.4 298.1 " fill="none" stroke="#000" stroke-width="1" stroke-linecap="round"/><path d="M 216.2 286.8 L 212.4 298.1 " fill="none" stroke="#000" stroke-width="1" stroke-linecap="round"/><path d="M 290.2 291.0 L 294.8 285.8 M 290.2 291.0 L 287.7 297.5 M 290.2 291.0 L 301.3 296.6 M 290.2 291.0 L 306.6 296.7 " fill="none" stroke="#000" stroke-width="1" stroke-linecap="round"/><path d="M 294.8 285.8 L 310.3 284.2 M 294.8 285.8 L 287.7 297.5 M 294.8 285.8 L 301.3 296.6 M 294.8 285.8 L 306.6 296.7 " fill="none" stroke="#000" stroke-width="1" stroke-linecap="round"/><path d="M 310.3 284.2 L 319.2 289.3 M 310.3 284.2 L 301.3 296.6 M 310.3 284.2 L 306.6 296.7 " fill="none" stroke="#000" stroke-width="1" stroke-linecap="round"/><path d="M 319.2 289.3 L 332.1 281.3 M 319.2 289.3 L 301.3 296.6 M 319.2 289.3 L 306.6 296.7 M 319.2 289.3 L 320.8 303.2 " fill="none" stroke="#000" stroke-width="1" stroke-linecap="round"/><path d="M 198.4 297.4 L 212.4 298.1 M 198.4 297.4 L 196.0 307.3 " fill="none" stroke="#000" stroke-width="1" stroke-linecap="round"/><path d="M 212.4 298.1 L 196.0 307.3 M 212.4 298.1 L 212.7 314.1 " fill="none" stroke="#000" stroke-width="1" stroke-linecap="round"/><path d="M 237.3 300.6 L 251.1 292.6 M 237.3 300.6 L 226.1 312.4 M 237.3 300.6 L 241.8 309.4 " fill="none" stroke="#000" stroke-width="1" stroke-linecap="round"/><path d="M 251.1 292.6 L 259.6 297.6 M 251.1 292.6 L 241.8 309.4 " fill="none" stroke="#000" stroke-width="1" stroke-linecap="round"/><path d="M 259.6 297.6 L 268.9 304.7 M 259.6 297.6 L 268.9 311.5 " fill="none" stroke="#000" stroke-width="1" stroke-linecap="round"/><path d="M 268.9 304.7 L 265.5 316.4 M 268.9 304.7 L 268.9 311.5 M 268.9 304.7 L 265.1 319.0 " fill="none" stroke="#000" stroke-width="1" stroke-linecap="round"/><path d="M 287.7 297.5 L 301.3 296.6 M 287.7 297.5 L 306.6 296.7 M 287.7 297.5 L 291.1 310.1 " fill="none" stroke="#000" stroke-width="1" stroke-linecap="round"/><path d="M 301.3 296.6 L 306.6 296.7 M 301.3 296.6 L 291.1 310.1 " fill="none" stroke="#000" stroke-width="1" stroke-linecap="round"/><path d="M 306.6 296.7 L 320.8 303.2 M 306.6 296.7 L 316.0 311.9 " fill="none" stroke="#000" stroke-width="1" stroke-linecap="round"/><path d="M 320.8 303.2 L 316.0 311.9 " fill="none" stroke="#000" stroke-width="1" stroke-linecap="round"/><path d="M 179.3 312.5 L 196.0 307.3 M 179.3 312.5 L 171.7 322.0 M 179.3 312.5 L 176.0 320.5 M 179.3 312.5 L 190.6 322.6 " fill="none" stroke="#000" stroke-width="1" stroke-linecap="round"/><path d="M 196.0 307.3 L 212.7 314.1 M 196.0 307.3 L 190.6 322.6 " fill="none" stroke="#000" stroke-width="1" stroke-linecap="round"/><path d="M 212.7 314.1 L 226.1 312.4 M 212.7 314.1 L 202.0 330.1 M 212.7 314.1 L 223.6 328.7 " fill="none" stroke="#000" stroke-width="1" stroke-linecap="round"/><path d="M 226.1 312.4 L 241.8 309.4 M 226.1 312.4 L 223.6 328.7 " fill="none" stroke="#000" stroke-width="1" stroke-linecap="round"/><path d="M 265.5 316.4 L 268.9 311.5 M 265.5 316.4 L 265.1 319.0 M 265.5 316.4 L 279.4 325.3 " fill="none" stroke="#000" stroke-width="1" stroke-linecap="round"/><path d="M 268.9 311.5 L 265.1 319.0 M 268.9 311.5 L 279.4 325.3 M 268.9 311.5 L 283.9 323.1 " fill="none" stroke="#000" stroke-width="1" stroke-linecap="round"/><path d="M 291.1 310.1 L 297.5 317.1 M 291.1 310.1 L 279.4 325.3 M 291.1 310.1 L 283.9 323.1 " fill="none" stroke="#000" stroke-width="1" stroke-linecap="round"/><path d="M 297.5 317.1 L 316.0 311.9 M 297.5 317.1 L 283.9 323.1 M 297.5 317.1 L 300.9 329.9 M 297.5 317.1 L 287.3 333.2 " fill="none" stroke="#000" stroke-width="1" stroke-linecap="round"/><path d="M 171.7 322.0 L 176.0 320.5 M 171.7 322.0 L 190.6 322.6 M 171.7 322.0 L 167.4 335.1 " fill="none" stroke="#000" stroke-width="1" stroke-linecap="round"/><path d="M 176.0 320.5 L 190.6 322.6 M 176.0 320.5 L 167.4 335.1 " fill="none" stroke="#000" stroke-width="1" stroke-linecap="round"/><path d="M 190.6 322.6 L 202.0 330.1 " fill="none" stroke="#000" stroke-width="1" stroke-linecap="round"/><path d="M 202.0 330.1 L 194.4 344.0 M 202.0 330.1 L 211.8 338.1 " fill="none" stroke="#000" stroke-width="1" stroke-linecap="round"/><path d="M 223.6 328.7 L 211.8 338.1 M 223.6 328.7 L 226.3 336.4 M 223.6 328.7 L 236.5 342.2 " fill="none" stroke="#000" stroke-width="1" stroke-linecap="round"/><path d="M 265.1 319.0 L 279.4 325.3 M 265.1 319.0 L 283.9 323.1 " fill="none" stroke="#000" stroke-width="1" stroke-linecap="round"/><path d="M 279.4 325.3 L 283.9 323.1 M 279.4 325.3 L 276.9 340.7 M 279.4 325.3 L 287.3 333.2 " fill="none" stroke="#000" stroke-width="1" stroke-linecap="round"/><path d="M 283.9 323.1 L 300.9 329.9 M 283.9 323.1 L 276.9 340.7 M 283.9 323.1 L 287.3 333.2 " fill="none" stroke="#000" stroke-width="1" stroke-linecap="round"/><path d="M 300.9 329.9 L 287.3 333.2 M 300.9 329.9 L 301.9 342.6 M 300.9 329.9 L 311.0 341.3 " fill="none" stroke="#000" stroke-width="1" stroke-linecap="round"/><path d="M 138.4 342.9 L 133.3 345.5 M 138.4 342.9 L 138.8 356.7 M 138.4 342.9 L 157.0 348.6 M 138.4 342.9 L 139.7 359.5 " fill="none" stroke="#000" stroke-width="1" stroke-linecap="round"/><path d="M 160.4 339.3 L 167.4 335.1 M 160.4 339.3 L 176.5 343.2 M 160.4 339.3 L 157.0 348.6 M 160.4 339.3 L 171.6 345.1 " fill="none" stroke="#000" stroke-width="1" stroke-linecap="round"/><path d="M 167.4 335.1 L 176.5 343.2 M 167.4 335.1 L 157.0 348.6 M 167.4 335.1 L 171.6 345.1 " fill="none" stroke="#000" stroke-width="1" stroke-linecap="round"/><path d="M 176.5 343.2 L 194.4 344.0 M 176.5 343.2 L 171.6 345.1 M 176.5 343.2 L 186.4 355.6 M 176.5 343.2 L 189.9 346.1 " fill="none" stroke="#000" stroke-width="1" stroke-linecap="round"/><path d="M 194.4 344.0 L 211.8 338.1 M 194.4 344.0 L 186.4 355.6 M 194.4 344.0 L 189.9 346.1 M 194.4 344.0 L 202.1 351.8 " fill="none" stroke="#000" stroke-width="1" stroke-linecap="round"/><path d="M 211.8 338.1 L 226.3 336.4 M 211.8 338.1 L 202.1 351.8 " fill="none" stroke="#000" stroke-width="1" stroke-linecap="round"/><path d="M 226.3 336.4 L 236.5 342.2 " fill="none" stroke="#000" stroke-width="1" stroke-linecap="round"/><path d="M 236.5 342.2 L 249.4 334.5 M 236.5 342.2 L 233.5 355.5 M 236.5 342.2 L 243.9 348.0 M 236.5 342.2 L 230.2 360.3 " fill="none" stroke="#000" stroke-width="1" stroke-linecap="round"/><path d="M 249.4 334.5 L 257.0 343.4 M 249.4 334.5 L 243.9 348.0 " fill="none" stroke="#000" stroke-width="1" stroke-linecap="round"/><path d="M 257.0 343.4 L 243.9 348.0 M 257.0 343.4 L 261.3 354.3 M 257.0 343.4 L 262.1 358.8 " fill="none" stroke="#000" stroke-width="1" stroke-linecap="round"/><path d="M 276.9 340.7 L 287.3 333.2 M 276.9 340.7 L 279.2 354.9 M 276.9 340.7 L 284.5 349.8 M 276.9 340.7 L 277.3 359.0 " fill="none" stroke="#000" stroke-width="1" stroke-linecap="round"/><path d="M 287.3 333.2 L 301.9 342.6 M 287.3 333.2 L 284.5 349.8 " fill="none" stroke="#000" stroke-width="1" stroke-linecap="round"/><path d="M 301.9 342.6 L 311.0 341.3 M 301.9 342.6 L 284.5 349.8 M 301.9 342.6 L 301.3 355.1 M 301.9 342.6 L 312.5 351.5 " fill="none" stroke="#000" stroke-width="1" stroke-linecap="round"/><path d="M 311.0 341.3 L 301.3 355.1 M 311.0 341.3 L 312.5 351.5 M 311.0 341.3 L 311.7 358.7 " fill="none" stroke="#000" stroke-width="1" stroke-linecap="round"/><path d="M 133.3 345.5 L 138.8 356.7 M 133.3 345.5 L 139.7 359.5 " fill="none" stroke="#000" stroke-width="1" stroke-linecap="round"/><path d="M 138.8 356.7 L 132.2 366.8 M 138.8 356.7 L 139.7 359.5 M 138.8 356.7 L 150.3 358.7 M 138.8 356.7 L 129.7 370.6 " fill="none" stroke="#000" stroke-width="1" stroke-linecap="round"/><path d="M 157.0 348.6 L 171.6 345.1 M 157.0 348.6 L 150.3 358.7 M 157.0 348.6 L 165.8 360.2 " fill="none" stroke="#000" stroke-width="1" stroke-linecap="round"/><path d="M 171.6 345.1 L 186.4 355.6 M 171.6 345.1 L 189.9 346.1 M 171.6 345.1 L 165.8 360.2 M 171.6 345.1 L 182.2 358.8 " fill="none" stroke="#000" stroke-width="1" stroke-linecap="round"/><path d="M 186.4 355.6 L 189.9 346.1 M 186.4 355.6 L 202.1 351.8 M 186.4 355.6 L 182.2 358.8 M 186.4 355.6 L 188.8 361.2 " fill="none" stroke="#000" stroke-width="1" stroke-linecap="round"/><path d="M 189.9 346.1 L 202.1 351.8 M 189.9 346.1 L 182.2 358.8 M 189.9 346.1 L 188.8 361.2 " fill="none" stroke="#000" stroke-width="1" stroke-linecap="round"/><path d="M 202.1 351.8 L 220.9 355.9 M 202.1 351.8 L 188.8 361.2 " fill="none" stroke="#000" stroke-width="1" stroke-linecap="round"/><path d="M 220.9 355.9 L 233.5 355.5 M 220.9 355.9 L 213.0 368.5 M 220.9 355.9 L 227.1 362.8 M 220.9 355.9 L 230.2 360.3 " fill="none" stroke="#000" stroke-width="1" stroke-linecap="round"/><path d="M 233.5 355.5 L 243.9 348.0 M 233.5 355.5 L 227.1 362.8 M 233.5 355.5 L 230.2 360.3 M 233.5 355.5 L 240.7 363.8 " fill="none" stroke="#000" stroke-width="1" stroke-linecap="round"/><path d="M 243.9 348.0 L 261.3 354.3 M 243.9 348.0 L 230.2 360.3 M 243.9 348.0 L 240.7 363.8 " fill="none" stroke="#000" stroke-width="1" stroke-linecap="round"/><path d="M 261.3 354.3 L 279.2 354.9 M 261.3 354.3 L 262.1 358.8 M 261.3 354.3 L 277.3 359.0 " fill="none" stroke="#000" stroke-width="1" stroke-linecap="round"/><path d="M 279.2 354.9 L 284.5 349.8 M 279.2 354.9 L 262.1 358.8 M 279.2 354.9 L 277.3 359.0 M 279.2 354.9 L 282.0 367.7 " fill="none" stroke="#000" stroke-width="1" stroke-linecap="round"/><path d="M 284.5 349.8 L 301.3 355.1 M 284.5 349.8 L 277.3 359.0 M 284.5 349.8 L 282.0 367.7 " fill="none" stroke="#000" stroke-width="1" stroke-linecap="round"/><path d="M 301.3 355.1 L 312.5 351.5 M 301.3 355.1 L 301.5 362.0 M 301.3 355.1 L 311.7 358.7 M 301.3 355.1 L 300.0 372.4 " fill="none" stroke="#000" stroke-width="1" stroke-linecap="round"/><path d="M 312.5 351.5 L 301.5 362.0 M 312.5 351.5 L 311.7 358.7 M 312.5 351.5 L 326.8 360.0 " fill="none" stroke="#000" stroke-width="1" stroke-linecap="round"/><path d="M 112.5 363.4 L 109.2 371.2 M 112.5 363.4 L 122.7 377.8 M 112.5 363.4 L 129.7 370.6 " fill="none" stroke="#000" stroke-width="1" stroke-linecap="round"/><path d="M 132.2 366.8 L 139.7 359.5 M 132.2 366.8 L 122.7 377.8 M 132.2 366.8 L 129.7 370.6 M 132.2 366.8 L 147.7 372.1 " fill="none" stroke="#000" stroke-width="1" stroke-linecap="round"/><path d="M 139.7 359.5 L 150.3 358.7 M 139.7 359.5 L 129.7 370.6 M 139.7 359.5 L 147.7 372.1 M 139.7 359.5 L 150.0 373.5 " fill="none" stroke="#000" stroke-width="1" stroke-linecap="round"/><path d="M 150.3 358.7 L 165.8 360.2 M 150.3 358.7 L 147.7 372.1 M 150.3 358.7 L 150.0 373.5 " fill="none" stroke="#000" stroke-width="1" stroke-linecap="round"/><path d="M 165.8 360.2 L 182.2 358.8 " fill="none" stroke="#000" stroke-width="1" stroke-linecap="round"/><path d="M 182.2 358.8 L 188.8 361.2 " fill="none" stroke="#000" stroke-width="1" stroke-linecap="round"/><path d="M 188.8 361.2 L 198.4 371.2 " fill="none" stroke="#000" stroke-width="1" stroke-linecap="round"/><path d="M 213.0 368.5 L 227.1 362.8 M 213.0 368.5 L 230.2 360.3 M 213.0 368.5 L 198.4 371.2 M 213.0 368.5 L 203.4 381.8 " fill="none" stroke="#000" stroke-width="1" stroke-linecap="round"/><path d="M 227.1 362.8 L 230.2 360.3 M 227.1 362.8 L 240.7 363.8 M 227.1 362.8 L 221.9 375.1 M 227.1 362.8 L 236.7 377.6 " fill="none" stroke="#000" stroke-width="1" stroke-linecap="round"/><path d="M 230.2 360.3 L 240.7 363.8 M 230.2 360.3 L 221.9 375.1 M 230.2 360.3 L 236.7 377.6 " fill="none" stroke="#000" stroke-width="1" stroke-linecap="round"/><path d="M 240.7 363.8 L 236.7 377.6 " fill="none" stroke="#000" stroke-width="1" stroke-linecap="round"/><path d="M 262.1 358.8 L 277.3 359.0 " fill="none" stroke="#000" stroke-width="1" stroke-linecap="round"/><path d="M 277.3 359.0 L 282.0 367.7 M 277.3 359.0 L 279.4 374.5 " fill="none" stroke="#000" stroke-width="1" stroke-linecap="round"/><path d="M 282.0 367.7 L 279.4 374.5 M 282.0 367.7 L 290.2 374.2 M 282.0 367.7 L 300.0 372.4 M 282.0 367.7 L 278.1 386.7 " fill="none" stroke="#000" stroke-width="1" stroke-linecap="round"/><path d="M 301.5 362.0 L 311.7 358.7 M 301.5 362.0 L 290.2 374.2 M 301.5 362.0 L 300.0 372.4 " fill="none" stroke="#000" stroke-width="1" stroke-linecap="round"/><path d="M 311.7 358.7 L 326.8 360.0 M 311.7 358.7 L 300.0 372.4 " fill="none" stroke="#000" stroke-width="1" stroke-linecap="round"/><path d="M 326.8 360.0 L 328.9 372.9 M 326.8 360.0 L 335.7 371.2 " fill="none" stroke="#000" stroke-width="1" stroke-linecap="round"/><path d="M 109.2 371.2 L 122.7 377.8 M 109.2 371.2 L 109.7 388.2 " fill="none" stroke="#000" stroke-width="1" stroke-linecap="round"/><path d="M 122.7 377.8 L 129.7 370.6 M 122.7 377.8 L 109.7 388.2 M 122.7 377.8 L 121.4 394.0 M 122.7 377.8 L 132.9 390.4 " fill="none" stroke="#000" stroke-width="1" stroke-linecap="round"/><path d="M 129.7 370.6 L 147.7 372.1 " fill="none" stroke="#000" stroke-width="1" stroke-linecap="round"/><path d="M 147.7 372.1 L 150.0 373.5 M 147.7 372.1 L 145.1 386.3 M 147.7 372.1 L 155.7 386.3 " fill="none" stroke="#000" stroke-width="1" stroke-linecap="round"/><path d="M 150.0 373.5 L 145.1 386.3 M 150.0 373.5 L 155.7 386.3 " fill="none" stroke="#000" stroke-width="1" stroke-linecap="round"/><path d="M 172.3 379.6 L 182.0 380.4 M 172.3 379.6 L 155.7 386.3 M 172.3 379.6 L 168.6 392.7 M 172.3 379.6 L 177.8 386.0 " fill="none" stroke="#000" stroke-width="1" stroke-linecap="round"/><path d="M 182.0 380.4 L 198.4 371.2 M 182.0 380.4 L 168.6 392.7 M 182.0 380.4 L 177.8 386.0 M 182.0 380.4 L 194.2 385.8 " fill="none" stroke="#000" stroke-width="1" stroke-linecap="round"/><path d="M 198.4 371.2 L 203.4 381.8 M 198.4 371.2 L 194.2 385.8 " fill="none" stroke="#000" stroke-width="1" stroke-linecap="round"/><path d="M 203.4 381.8 L 194.2 385.8 M 203.4 381.8 L 214.2 389.2 " fill="none" stroke="#000" stroke-width="1" stroke-linecap="round"/><path d="M 221.9 375.1 L 236.7 377.6 M 221.9 375.1 L 214.2 389.2 M 221.9 375.1 L 220.6 392.0 " fill="none" stroke="#000" stroke-width="1" stroke-linecap="round"/><path d="M 236.7 377.6 L 242.9 383.5 M 236.7 377.6 L 236.1 392.5 " fill="none" stroke="#000" stroke-width="1" stroke-linecap="round"/><path d="M 242.9 383.5 L 236.1 392.5 M 242.9 383.5 L 249.9 394.0 M 242.9 383.5 L 257.0 393.8 " fill="none" stroke="#000" stroke-width="1" stroke-linecap="round"/><path d="M 279.4 374.5 L 290.2 374.2 M 279.4 374.5 L 278.1 386.7 M 279.4 374.5 L 288.3 389.7 " fill="none" stroke="#000" stroke-width="1" stroke-linecap="round"/><path d="M 290.2 374.2 L 300.0 372.4 M 290.2 374.2 L 278.1 386.7 M 290.2 374.2 L 288.3 389.7 " fill="none" stroke="#000" stroke-width="1" stroke-linecap="round"/><path d="M 300.0 372.4 L 313.6 379.6 M 300.0 372.4 L 310.5 384.9 " fill="none" stroke="#000" stroke-width="1" stroke-linecap="round"/><path d="M 313.6 379.6 L 328.9 372.9 M 313.6 379.6 L 300.2 392.8 M 313.6 379.6 L 310.5 384.9 M 313.6 379.6 L 331.4 385.2 " fill="none" stroke="#000" stroke-width="1" stroke-linecap="round"/><path d="M 328.9 372.9 L 335.7 371.2 M 328.9 372.9 L 331.4 385.2 M 328.9 372.9 L 340.0 384.2 " fill="none" stroke="#000" stroke-width="1" stroke-linecap="round"/><path d="M 335.7 371.2 L 331.4 385.2 M 335.7 371.2 L 340.0 384.2 " fill="none" stroke="#000" stroke-width="1" stroke-linecap="round"/><path d="M 96.4 386.5 L 109.7 388.2 M 96.4 386.5 L 94.1 398.9 " fill="none" stroke="#000" stroke-width="1" stroke-linecap="round"/><path d="M 109.7 388.2 L 121.4 394.0 M 109.7 388.2 L 94.1 398.9 M 109.7 388.2 L 117.2 398.5 M 109.7 388.2 L 123.8 396.9 " fill="none" stroke="#000" stroke-width="1" stroke-linecap="round"/><path d="M 121.4 394.0 L 132.9 390.4 M 121.4 394.0 L 117.2 398.5 M 121.4 394.0 L 123.8 396.9 M 121.4 394.0 L 117.4 409.6 " fill="none" stroke="#000" stroke-width="1" stroke-linecap="round"/><path d="M 132.9 390.4 L 145.1 386.3 M 132.9 390.4 L 117.2 398.5 M 132.9 390.4 L 123.8 396.9 " fill="none" stroke="#000" stroke-width="1" stroke-linecap="round"/><path d="M 145.1 386.3 L 155.7 386.3 " fill="none" stroke="#000" stroke-width="1" stroke-linecap="round"/><path d="M 155.7 386.3 L 168.6 392.7 M 155.7 386.3 L 153.6 404.4 " fill="none" stroke="#000" stroke-width="1" stroke-linecap="round"/><path d="M 168.6 392.7 L 177.8 386.0 M 168.6 392.7 L 153.6 404.4 M 168.6 392.7 L 172.5 407.4 M 168.6 392.7 L 187.4 396.7 " fill="none" stroke="#000" stroke-width="1" stroke-linecap="round"/><path d="M 177.8 386.0 L 194.2 385.8 M 177.8 386.0 L 187.4 396.7 " fill="none" stroke="#000" stroke-width="1" stroke-linecap="round"/><path d="M 194.2 385.8 L 187.4 396.7 " fill="none" stroke="#000" stroke-width="1" stroke-linecap="round"/><path d="M 214.2 389.2 L 220.6 392.0 M 214.2 389.2 L 229.1 397.8 " fill="none" stroke="#000" stroke-width="1" stroke-linecap="round"/><path d="M 220.6 392.0 L 236.1 392.5 M 220.6 392.0 L 225.7 406.1 M 220.6 392.0 L 229.1 397.8 M 220.6 392.0 L 219.7 410.9 " fill="none" stroke="#000" stroke-width="1" stroke-linecap="round"/><path d="M 236.1 392.5 L 249.9 394.0 M 236.1 392.5 L 225.7 406.1 M 236.1 392.5 L 229.1 397.8 M 236.1 392.5 L 249.7 401.9 " fill="none" stroke="#000" stroke-width="1" stroke-linecap="round"/><path d="M 249.9 394.0 L 257.0 393.8 M 249.9 394.0 L 249.7 401.9 M 249.9 394.0 L 256.8 399.5 " fill="none" stroke="#000" stroke-width="1" stroke-linecap="round"/><path d="M 257.0 393.8 L 249.7 401.9 M 257.0 393.8 L 256.8 399.5 " fill="none" stroke="#000" stroke-width="1" stroke-linecap="round"/><path d="M 278.1 386.7 L 288.3 389.7 M 278.1 386.7 L 277.0 405.9 " fill="none" stroke="#000" stroke-width="1" stroke-linecap="round"/><path d="M 288.3 389.7 L 300.2 392.8 M 288.3 389.7 L 291.8 404.5 M 288.3 389.7 L 298.7 400.6 " fill="none" stroke="#000" stroke-width="1" stroke-linecap="round"/><path d="M 300.2 392.8 L 310.5 384.9 M 300.2 392.8 L 291.8 404.5 M 300.2 392.8 L 298.7 400.6 M 300.2 392.8 L 306.4 405.8 " fill="none" stroke="#000" stroke-width="1" stroke-linecap="round"/><path d="M 331.4 385.2 L 340.0 384.2 M 331.4 385.2 L 348.0 394.4 " fill="none" stroke="#000" stroke-width="1" stroke-linecap="round"/><path d="M 340.0 384.2 L 348.0 394.4 M 340.0 384.2 L 344.3 400.0 " fill="none" stroke="#000" stroke-width="1" stroke-linecap="round"/><path d="M 348.0 394.4 L 344.3 400.0 M 348.0 394.4 L 344.5 406.4 " fill="none" stroke="#000" stroke-width="1" stroke-linecap="round"/><path d="M 73.2 405.9 L 77.6 419.5 " fill="none" stroke="#000" stroke-width="1" stroke-linecap="round"/><path d="M 94.1 398.9 L 98.9 406.3 M 94.1 398.9 L 100.0 413.5 " fill="none" stroke="#000" stroke-width="1" stroke-linecap="round"/><path d="M 98.9 406.3 L 95.4 421.1 M 98.9 406.3 L 100.0 413.5 M 98.9 406.3 L 117.4 409.6 M 98.9 406.3 L 90.5 423.5 " fill="none" stroke="#000" stroke-width="1" stroke-linecap="round"/><path d="M 117.2 398.5 L 123.8 396.9 M 117.2 398.5 L 117.4 409.6 " fill="none" stroke="#000" stroke-width="1" stroke-linecap="round"/><path d="M 123.8 396.9 L 117.4 409.6 " fill="none" stroke="#000" stroke-width="1" stroke-linecap="round"/><path d="M 145.7 408.2 L 153.6 404.4 M 145.7 408.2 L 133.8 419.6 M 145.7 408.2 L 146.1 414.1 M 145.7 408.2 L 149.8 421.4 " fill="none" stroke="#000" stroke-width="1" stroke-linecap="round"/><path d="M 153.6 404.4 L 172.5 407.4 M 153.6 404.4 L 146.1 414.1 M 153.6 404.4 L 149.8 421.4 " fill="none" stroke="#000" stroke-width="1" stroke-linecap="round"/><path d="M 172.5 407.4 L 187.4 396.7 M 172.5 407.4 L 188.5 407.1 M 172.5 407.4 L 174.2 417.2 M 172.5 407.4 L 177.2 416.8 " fill="none" stroke="#000" stroke-width="1" stroke-linecap="round"/><path d="M 187.4 396.7 L 188.5 407.1 M 187.4 396.7 L 203.8 406.8 " fill="none" stroke="#000" stroke-width="1" stroke-linecap="round"/><path d="M 188.5 407.1 L 203.8 406.8 M 188.5 407.1 L 174.2 417.2 M 188.5 407.1 L 177.2 416.8 M 188.5 407.1 L 194.7 418.7 " fill="none" stroke="#000" stroke-width="1" stroke-linecap="round"/><path d="M 203.8 406.8 L 194.7 418.7 M 203.8 406.8 L 208.0 414.7 M 203.8 406.8 L 219.7 410.9 " fill="none" stroke="#000" stroke-width="1" stroke-linecap="round"/><path d="M 225.7 406.1 L 229.1 397.8 M 225.7 406.1 L 219.7 410.9 M 225.7 406.1 L 239.6 417.6 " fill="none" stroke="#000" stroke-width="1" stroke-linecap="round"/><path d="M 229.1 397.8 L 219.7 410.9 " fill="none" stroke="#000" stroke-width="1" stroke-linecap="round"/><path d="M 249.7 401.9 L 256.8 399.5 M 249.7 401.9 L 239.6 417.6 M 249.7 401.9 L 253.2 417.0 " fill="none" stroke="#000" stroke-width="1" stroke-linecap="round"/><path d="M 256.8 399.5 L 253.2 417.0 " fill="none" stroke="#000" stroke-width="1" stroke-linecap="round"/><path d="M 277.0 405.9 L 291.8 404.5 M 277.0 405.9 L 265.7 421.3 M 277.0 405.9 L 274.7 413.0 M 277.0 405.9 L 285.4 422.4 " fill="none" stroke="#000" stroke-width="1" stroke-linecap="round"/><path d="M 291.8 404.5 L 298.7 400.6 M 291.8 404.5 L 306.4 405.8 M 291.8 404.5 L 274.7 413.0 M 291.8 404.5 L 285.4 422.4 " fill="none" stroke="#000" stroke-width="1" stroke-linecap="round"/><path d="M 298.7 400.6 L 306.4 405.8 M 298.7 400.6 L 295.8 419.6 " fill="none" stroke="#000" stroke-width="1" stroke-linecap="round"/><path d="M 306.4 405.8 L 321.5 404.9 M 306.4 405.8 L 295.8 419.6 M 306.4 405.8 L 311.3 421.4 " fill="none" stroke="#000" stroke-width="1" stroke-linecap="round"/><path d="M 321.5 404.9 L 311.3 421.4 M 321.5 404.9 L 325.1 418.5 " fill="none" stroke="#000" stroke-width="1" stroke-linecap="round"/><path d="M 344.3 400.0 L 344.5 406.4 " fill="none" stroke="#000" stroke-width="1" stroke-linecap="round"/><path d="M 344.5 406.4 L 338.6 418.7 M 344.5 406.4 L 347.9 422.2 M 344.5 406.4 L 345.5 425.6 " fill="none" stroke="#000" stroke-width="1" stroke-linecap="round"/><path d="M 77.6 419.5 L 95.4 421.1 M 77.6 419.5 L 84.4 428.4 M 77.6 419.5 L 90.5 423.5 M 77.6 419.5 L 76.9 438.2 " fill="none" stroke="#000" stroke-width="1" stroke-linecap="round"/><path d="M 95.4 421.1 L 100.0 413.5 M 95.4 421.1 L 84.4 428.4 M 95.4 421.1 L 90.5 423.5 M 95.4 421.1 L 107.3 428.3 " fill="none" stroke="#000" stroke-width="1" stroke-linecap="round"/><path d="M 100.0 413.5 L 117.4 409.6 M 100.0 413.5 L 90.5 423.5 M 100.0 413.5 L 107.3 428.3 " fill="none" stroke="#000" stroke-width="1" stroke-linecap="round"/><path d="M 117.4 409.6 L 133.8 419.6 M 117.4 409.6 L 123.2 424.9 " fill="none" stroke="#000" stroke-width="1" stroke-linecap="round"/><path d="M 133.8 419.6 L 146.1 414.1 M 133.8 419.6 L 149.8 421.4 M 133.8 419.6 L 123.2 424.9 M 133.8 419.6 L 132.9 422.7 " fill="none" stroke="#000" stroke-width="1" stroke-linecap="round"/><path d="M 146.1 414.1 L 149.8 421.4 M 146.1 414.1 L 132.9 422.7 M 146.1 414.1 L 142.6 426.3 M 146.1 414.1 L 154.6 429.2 " fill="none" stroke="#000" stroke-width="1" stroke-linecap="round"/><path d="M 149.8 421.4 L 132.9 422.7 M 149.8 421.4 L 142.6 426.3 M 149.8 421.4 L 154.6 429.2 M 149.8 421.4 L 151.1 438.8 " fill="none" stroke="#000" stroke-width="1" stroke-linecap="round"/><path d="M 174.2 417.2 L 177.2 416.8 M 174.2 417.2 L 175.4 423.4 M 174.2 417.2 L 175.8 427.6 " fill="none" stroke="#000" stroke-width="1" stroke-linecap="round"/><path d="M 177.2 416.8 L 194.7 418.7 M 177.2 416.8 L 175.4 423.4 M 177.2 416.8 L 175.8 427.6 " fill="none" stroke="#000" stroke-width="1" stroke-linecap="round"/><path d="M 194.7 418.7 L 208.0 414.7 M 194.7 418.7 L 200.5 433.6 M 194.7 418.7 L 205.9 431.8 " fill="none" stroke="#000" stroke-width="1" stroke-linecap="round"/><path d="M 208.0 414.7 L 219.7 410.9 M 208.0 414.7 L 205.9 431.8 M 208.0 414.7 L 214.6 430.5 " fill="none" stroke="#000" stroke-width="1" stroke-linecap="round"/><path d="M 239.6 417.6 L 253.2 417.0 M 239.6 417.6 L 229.8 431.9 M 239.6 417.6 L 243.3 424.3 M 239.6 417.6 L 255.0 424.2 " fill="none" stroke="#000" stroke-width="1" stroke-linecap="round"/><path d="M 253.2 417.0 L 265.7 421.3 M 253.2 417.0 L 243.3 424.3 M 253.2 417.0 L 255.0 424.2 " fill="none" stroke="#000" stroke-width="1" stroke-linecap="round"/><path d="M 265.7 421.3 L 274.7 413.0 M 265.7 421.3 L 255.0 424.2 M 265.7 421.3 L 269.2 439.9 " fill="none" stroke="#000" stroke-width="1" stroke-linecap="round"/><path d="M 274.7 413.0 L 285.4 422.4 " fill="none" stroke="#000" stroke-width="1" stroke-linecap="round"/><path d="M 285.4 422.4 L 295.8 419.6 M 285.4 422.4 L 279.4 435.2 M 285.4 422.4 L 291.5 428.3 M 285.4 422.4 L 295.5 432.2 " fill="none" stroke="#000" stroke-width="1" stroke-linecap="round"/><path d="M 295.8 419.6 L 311.3 421.4 M 295.8 419.6 L 291.5 428.3 M 295.8 419.6 L 295.5 432.2 M 295.8 419.6 L 306.7 425.6 " fill="none" stroke="#000" stroke-width="1" stroke-linecap="round"/><path d="M 311.3 421.4 L 325.1 418.5 M 311.3 421.4 L 295.5 432.2 M 311.3 421.4 L 306.7 425.6 M 311.3 421.4 L 325.9 424.5 " fill="none" stroke="#000" stroke-width="1" stroke-linecap="round"/><path d="M 325.1 418.5 L 338.6 418.7 M 325.1 418.5 L 325.9 424.5 " fill="none" stroke="#000" stroke-width="1" stroke-linecap="round"/><path d="M 338.6 418.7 L 347.9 422.2 M 338.6 418.7 L 325.9 424.5 M 338.6 418.7 L 342.3 430.2 M 338.6 418.7 L 345.5 425.6 " fill="none" stroke="#000" stroke-width="1" stroke-linecap="round"/><path d="M 347.9 422.2 L 342.3 430.2 M 347.9 422.2 L 345.5 425.6 M 347.9 422.2 L 337.3 438.3 " fill="none" stroke="#000" stroke-width="1" stroke-linecap="round"/><path d="M 84.4 428.4 L 90.5 423.5 M 84.4 428.4 L 76.9 438.2 " fill="none" stroke="#000" stroke-width="1" stroke-linecap="round"/><path d="M 90.5 423.5 L 107.3 428.3 " fill="none" stroke="#000" stroke-width="1" stroke-linecap="round"/><path d="M 107.3 428.3 L 123.2 424.9 M 107.3 428.3 L 110.0 442.7 " fill="none" stroke="#000" stroke-width="1" stroke-linecap="round"/><path d="M 123.2 424.9 L 132.9 422.7 M 123.2 424.9 L 142.6 426.3 M 123.2 424.9 L 128.3 440.5 " fill="none" stroke="#000" stroke-width="1" stroke-linecap="round"/><path d="M 132.9 422.7 L 142.6 426.3 M 132.9 422.7 L 128.3 440.5 " fill="none" stroke="#000" stroke-width="1" stroke-linecap="round"/><path d="M 142.6 426.3 L 154.6 429.2 M 142.6 426.3 L 137.2 444.4 M 142.6 426.3 L 151.1 438.8 " fill="none" stroke="#000" stroke-width="1" stroke-linecap="round"/><path d="M 154.6 429.2 L 151.1 438.8 " fill="none" stroke="#000" stroke-width="1" stroke-linecap="round"/><path d="M 175.4 423.4 L 175.8 427.6 M 175.4 423.4 L 179.2 437.9 " fill="none" stroke="#000" stroke-width="1" stroke-linecap="round"/><path d="M 175.8 427.6 L 170.6 444.1 M 175.8 427.6 L 179.2 437.9 " fill="none" stroke="#000" stroke-width="1" stroke-linecap="round"/><path d="M 200.5 433.6 L 205.9 431.8 M 200.5 433.6 L 214.6 430.5 M 200.5 433.6 L 212.2 448.4 M 200.5 433.6 L 193.7 450.3 " fill="none" stroke="#000" stroke-width="1" stroke-linecap="round"/><path d="M 205.9 431.8 L 214.6 430.5 M 205.9 431.8 L 212.2 448.4 " fill="none" stroke="#000" stroke-width="1" stroke-linecap="round"/><path d="M 214.6 430.5 L 229.8 431.9 M 214.6 430.5 L 212.2 448.4 " fill="none" stroke="#000" stroke-width="1" stroke-linecap="round"/><path d="M 229.8 431.9 L 243.3 424.3 " fill="none" stroke="#000" stroke-width="1" stroke-linecap="round"/><path d="M 243.3 424.3 L 255.0 424.2 " fill="none" stroke="#000" stroke-width="1" stroke-linecap="round"/><path d="M 279.4 435.2 L 291.5 428.3 M 279.4 435.2 L 295.5 432.2 M 279.4 435.2 L 269.2 439.9 M 279.4 435.2 L 282.1 437.1 " fill="none" stroke="#000" stroke-width="1" stroke-linecap="round"/><path d="M 291.5 428.3 L 295.5 432.2 M 291.5 428.3 L 306.7 425.6 M 291.5 428.3 L 282.1 437.1 M 291.5 428.3 L 304.5 436.9 " fill="none" stroke="#000" stroke-width="1" stroke-linecap="round"/><path d="M 295.5 432.2 L 306.7 425.6 M 295.5 432.2 L 282.1 437.1 M 295.5 432.2 L 304.5 436.9 " fill="none" stroke="#000" stroke-width="1" stroke-linecap="round"/><path d="M 306.7 425.6 L 325.9 424.5 M 306.7 425.6 L 304.5 436.9 " fill="none" stroke="#000" stroke-width="1" stroke-linecap="round"/><path d="M 325.9 424.5 L 342.3 430.2 M 325.9 424.5 L 325.7 440.8 M 325.9 424.5 L 337.3 438.3 " fill="none" stroke="#000" stroke-width="1" stroke-linecap="round"/><path d="M 342.3 430.2 L 345.5 425.6 M 342.3 430.2 L 337.3 438.3 M 342.3 430.2 L 356.0 440.1 " fill="none" stroke="#000" stroke-width="1" stroke-linecap="round"/><path d="M 345.5 425.6 L 337.3 438.3 M 345.5 425.6 L 356.0 440.1 " fill="none" stroke="#000" stroke-width="1" stroke-linecap="round"/><path d="M 94.3 447.4 L 110.0 442.7 M 94.3 447.4 L 92.5 456.5 M 94.3 447.4 L 107.1 452.5 M 94.3 447.4 L 83.5 462.1 " fill="none" stroke="#000" stroke-width="1" stroke-linecap="round"/><path d="M 110.0 442.7 L 115.6 446.7 M 110.0 442.7 L 128.3 440.5 M 110.0 442.7 L 107.1 452.5 M 110.0 442.7 L 123.1 454.2 " fill="none" stroke="#000" stroke-width="1" stroke-linecap="round"/><path d="M 115.6 446.7 L 128.3 440.5 M 115.6 446.7 L 107.1 452.5 M 115.6 446.7 L 123.1 454.2 M 115.6 446.7 L 126.4 453.6 " fill="none" stroke="#000" stroke-width="1" stroke-linecap="round"/><path d="M 128.3 440.5 L 137.2 444.4 M 128.3 440.5 L 123.1 454.2 M 128.3 440.5 L 126.4 453.6 " fill="none" stroke="#000" stroke-width="1" stroke-linecap="round"/><path d="M 137.2 444.4 L 151.1 438.8 M 137.2 444.4 L 123.1 454.2 M 137.2 444.4 L 126.4 453.6 M 137.2 444.4 L 144.1 461.3 " fill="none" stroke="#000" stroke-width="1" stroke-linecap="round"/><path d="M 151.1 438.8 L 159.1 454.8 " fill="none" stroke="#000" stroke-width="1" stroke-linecap="round"/><path d="M 170.6 444.1 L 179.2 437.9 M 170.6 444.1 L 159.1 454.8 M 170.6 444.1 L 169.5 454.6 M 170.6 444.1 L 183.0 454.3 " fill="none" stroke="#000" stroke-width="1" stroke-linecap="round"/><path d="M 179.2 437.9 L 169.5 454.6 M 179.2 437.9 L 183.0 454.3 M 179.2 437.9 L 193.7 450.3 " fill="none" stroke="#000" stroke-width="1" stroke-linecap="round"/><path d="M 212.2 448.4 L 193.7 450.3 M 212.2 448.4 L 216.8 456.0 " fill="none" stroke="#000" stroke-width="1" stroke-linecap="round"/><path d="M 259.8 447.7 L 269.2 439.9 M 259.8 447.7 L 243.4 455.9 M 259.8 447.7 L 256.6 457.2 M 259.8 447.7 L 268.2 460.2 " fill="none" stroke="#000" stroke-width="1" stroke-linecap="round"/><path d="M 269.2 439.9 L 282.1 437.1 M 269.2 439.9 L 283.3 450.7 " fill="none" stroke="#000" stroke-width="1" stroke-linecap="round"/><path d="M 282.1 437.1 L 283.3 450.7 " fill="none" stroke="#000" stroke-width="1" stroke-linecap="round"/><path d="M 304.5 436.9 L 309.0 448.3 M 304.5 436.9 L 297.3 453.2 " fill="none" stroke="#000" stroke-width="1" stroke-linecap="round"/><path d="M 309.0 448.3 L 325.7 440.8 M 309.0 448.3 L 297.3 453.2 M 309.0 448.3 L 309.8 459.7 " fill="none" stroke="#000" stroke-width="1" stroke-linecap="round"/><path d="M 325.7 440.8 L 337.3 438.3 M 325.7 440.8 L 328.4 459.9 " fill="none" stroke="#000" stroke-width="1" stroke-linecap="round"/><path d="M 337.3 438.3 L 356.0 440.1 " fill="none" stroke="#000" stroke-width="1" stroke-linecap="round"/><path d="M 71.9 458.7 L 83.5 462.1 " fill="none" stroke="#000" stroke-width="1" stroke-linecap="round"/><path d="M 92.5 456.5 L 107.1 452.5 M 92.5 456.5 L 83.5 462.1 M 92.5 456.5 L 94.9 471.7 M 92.5 456.5 L 105.1 467.7 " fill="none" stroke="#000" stroke-width="1" stroke-linecap="round"/><path d="M 107.1 452.5 L 123.1 454.2 M 107.1 452.5 L 126.4 453.6 M 107.1 452.5 L 105.1 467.7 " fill="none" stroke="#000" stroke-width="1" stroke-linecap="round"/><path d="M 123.1 454.2 L 126.4 453.6 M 123.1 454.2 L 118.3 470.0 M 123.1 454.2 L 126.3 464.6 " fill="none" stroke="#000" stroke-width="1" stroke-linecap="round"/><path d="M 126.4 453.6 L 144.1 461.3 M 126.4 453.6 L 118.3 470.0 M 126.4 453.6 L 126.3 464.6 " fill="none" stroke="#000" stroke-width="1" stroke-linecap="round"/><path d="M 144.1 461.3 L 159.1 454.8 M 144.1 461.3 L 126.3 464.6 M 144.1 461.3 L 140.3 467.8 M 144.1 461.3 L 158.0 462.3 " fill="none" stroke="#000" stroke-width="1" stroke-linecap="round"/><path d="M 159.1 454.8 L 169.5 454.6 M 159.1 454.8 L 158.0 462.3 M 159.1 454.8 L 168.0 464.1 " fill="none" stroke="#000" stroke-width="1" stroke-linecap="round"/><path d="M 169.5 454.6 L 183.0 454.3 M 169.5 454.6 L 158.0 462.3 M 169.5 454.6 L 168.0 464.1 M 169.5 454.6 L 179.2 464.8 " fill="none" stroke="#000" stroke-width="1" stroke-linecap="round"/><path d="M 183.0 454.3 L 193.7 450.3 M 183.0 454.3 L 168.0 464.1 M 183.0 454.3 L 179.2 464.8 " fill="none" stroke="#000" stroke-width="1" stroke-linecap="round"/><path d="M 193.7 450.3 L 201.4 465.2 " fill="none" stroke="#000" stroke-width="1" stroke-linecap="round"/><path d="M 216.8 456.0 L 201.4 465.2 M 216.8 456.0 L 229.0 466.4 " fill="none" stroke="#000" stroke-width="1" stroke-linecap="round"/><path d="M 243.4 455.9 L 256.6 457.2 M 243.4 455.9 L 229.0 466.4 " fill="none" stroke="#000" stroke-width="1" stroke-linecap="round"/><path d="M 256.6 457.2 L 268.2 460.2 M 256.6 457.2 L 270.6 468.0 " fill="none" stroke="#000" stroke-width="1" stroke-linecap="round"/><path d="M 268.2 460.2 L 283.3 450.7 M 268.2 460.2 L 270.6 468.0 " fill="none" stroke="#000" stroke-width="1" stroke-linecap="round"/><path d="M 283.3 450.7 L 297.3 453.2 M 283.3 450.7 L 295.8 465.4 " fill="none" stroke="#000" stroke-width="1" stroke-linecap="round"/><path d="M 297.3 453.2 L 309.8 459.7 M 297.3 453.2 L 295.8 465.4 " fill="none" stroke="#000" stroke-width="1" stroke-linecap="round"/><path d="M 309.8 459.7 L 328.4 459.9 M 309.8 459.7 L 295.8 465.4 M 309.8 459.7 L 315.9 467.9 M 309.8 459.7 L 320.2 471.3 " fill="none" stroke="#000" stroke-width="1" stroke-linecap="round"/><path d="M 328.4 459.9 L 331.9 459.5 M 328.4 459.9 L 315.9 467.9 M 328.4 459.9 L 320.2 471.3 " fill="none" stroke="#000" stroke-width="1" stroke-linecap="round"/><path d="M 331.9 459.5 L 315.9 467.9 M 331.9 459.5 L 320.2 471.3 M 331.9 459.5 L 344.4 473.1 " fill="none" stroke="#000" stroke-width="1" stroke-linecap="round"/><path d="M 83.5 462.1 L 94.9 471.7 " fill="none" stroke="#000" stroke-width="1" stroke-linecap="round"/><path d="M 94.9 471.7 L 105.1 467.7 M 94.9 471.7 L 80.8 484.1 M 94.9 471.7 L 91.4 480.4 M 94.9 471.7 L 97.6 481.8 " fill="none" stroke="#000" stroke-width="1" stroke-linecap="round"/><path d="M 105.1 467.7 L 118.3 470.0 M 105.1 467.7 L 91.4 480.4 M 105.1 467.7 L 97.6 481.8 M 105.1 467.7 L 114.0 476.8 " fill="none" stroke="#000" stroke-width="1" stroke-linecap="round"/><path d="M 118.3 470.0 L 126.3 464.6 M 118.3 470.0 L 114.0 476.8 M 118.3 470.0 L 118.9 488.2 " fill="none" stroke="#000" stroke-width="1" stroke-linecap="round"/><path d="M 126.3 464.6 L 140.3 467.8 M 126.3 464.6 L 114.0 476.8 " fill="none" stroke="#000" stroke-width="1" stroke-linecap="round"/><path d="M 140.3 467.8 L 158.0 462.3 M 140.3 467.8 L 133.6 485.9 M 140.3 467.8 L 143.0 482.8 " fill="none" stroke="#000" stroke-width="1" stroke-linecap="round"/><path d="M 158.0 462.3 L 168.0 464.1 " fill="none" stroke="#000" stroke-width="1" stroke-linecap="round"/><path d="M 168.0 464.1 L 179.2 464.8 M 168.0 464.1 L 161.7 481.7 M 168.0 464.1 L 171.8 480.2 M 168.0 464.1 L 178.3 476.8 " fill="none" stroke="#000" stroke-width="1" stroke-linecap="round"/><path d="M 179.2 464.8 L 171.8 480.2 M 179.2 464.8 L 178.3 476.8 " fill="none" stroke="#000" stroke-width="1" stroke-linecap="round"/><path d="M 201.4 465.2 L 199.3 481.2 " fill="none" stroke="#000" stroke-width="1" stroke-linecap="round"/><path d="M 270.6 468.0 L 257.4 480.3 M 270.6 468.0 L 269.8 485.9 " fill="none" stroke="#000" stroke-width="1" stroke-linecap="round"/><path d="M 295.8 465.4 L 302.1 480.9 " fill="none" stroke="#000" stroke-width="1" stroke-linecap="round"/><path d="M 315.9 467.9 L 320.2 471.3 M 315.9 467.9 L 302.1 480.9 M 315.9 467.9 L 310.5 478.9 " fill="none" stroke="#000" stroke-width="1" stroke-linecap="round"/><path d="M 320.2 471.3 L 310.5 478.9 M 320.2 471.3 L 330.6 484.8 M 320.2 471.3 L 312.3 488.9 " fill="none" stroke="#000" stroke-width="1" stroke-linecap="round"/><path d="M 344.4 473.1 L 330.6 484.8 M 344.4 473.1 L 338.9 478.7 " fill="none" stroke="#000" stroke-width="1" stroke-linecap="round"/><path d="M 80.8 484.1 L 91.4 480.4 M 80.8 484.1 L 97.6 481.8 M 80.8 484.1 L 73.4 492.7 M 80.8 484.1 L 93.9 490.8 " fill="none" stroke="#000" stroke-width="1" stroke-linecap="round"/><path d="M 91.4 480.4 L 97.6 481.8 M 91.4 480.4 L 93.9 490.8 M 91.4 480.4 L 98.2 497.8 " fill="none" stroke="#000" stroke-width="1" stroke-linecap="round"/><path d="M 97.6 481.8 L 114.0 476.8 M 97.6 481.8 L 93.9 490.8 M 97.6 481.8 L 98.2 497.8 " fill="none" stroke="#000" stroke-width="1" stroke-linecap="round"/><path d="M 114.0 476.8 L 118.9 488.2 " fill="none" stroke="#000" stroke-width="1" stroke-linecap="round"/><path d="M 133.6 485.9 L 143.0 482.8 M 133.6 485.9 L 118.9 488.2 M 133.6 485.9 L 130.3 498.1 M 133.6 485.9 L 140.3 490.6 " fill="none" stroke="#000" stroke-width="1" stroke-linecap="round"/><path d="M 143.0 482.8 L 161.7 481.7 M 143.0 482.8 L 140.3 490.6 M 143.0 482.8 L 153.4 491.2 " fill="none" stroke="#000" stroke-width="1" stroke-linecap="round"/><path d="M 161.7 481.7 L 171.8 480.2 M 161.7 481.7 L 178.3 476.8 M 161.7 481.7 L 153.4 491.2 M 161.7 481.7 L 171.0 490.0 " fill="none" stroke="#000" stroke-width="1" stroke-linecap="round"/><path d="M 171.8 480.2 L 178.3 476.8 M 171.8 480.2 L 171.0 490.0 M 171.8 480.2 L 184.4 494.0 " fill="none" stroke="#000" stroke-width="1" stroke-linecap="round"/><path d="M 178.3 476.8 L 171.0 490.0 M 178.3 476.8 L 184.4 494.0 " fill="none" stroke="#000" stroke-width="1" stroke-linecap="round"/><path d="M 199.3 481.2 L 190.8 494.7 M 199.3 481.2 L 210.7 493.4 " fill="none" stroke="#000" stroke-width="1" stroke-linecap="round"/><path d="M 241.8 482.6 L 257.4 480.3 M 241.8 482.6 L 225.8 491.5 M 241.8 482.6 L 235.6 491.4 M 241.8 482.6 L 244.4 495.9 " fill="none" stroke="#000" stroke-width="1" stroke-linecap="round"/><path d="M 257.4 480.3 L 269.8 485.9 M 257.4 480.3 L 255.5 494.8 " fill="none" stroke="#000" stroke-width="1" stroke-linecap="round"/><path d="M 269.8 485.9 L 285.7 482.9 M 269.8 485.9 L 255.5 494.8 M 269.8 485.9 L 277.7 496.0 M 269.8 485.9 L 286.4 494.1 " fill="none" stroke="#000" stroke-width="1" stroke-linecap="round"/><path d="M 285.7 482.9 L 302.1 480.9 M 285.7 482.9 L 277.7 496.0 M 285.7 482.9 L 286.4 494.1 M 285.7 482.9 L 289.0 501.6 " fill="none" stroke="#000" stroke-width="1" stroke-linecap="round"/><path d="M 302.1 480.9 L 310.5 478.9 M 302.1 480.9 L 300.3 497.7 M 302.1 480.9 L 312.3 488.9 " fill="none" stroke="#000" stroke-width="1" stroke-linecap="round"/><path d="M 310.5 478.9 L 312.3 488.9 " fill="none" stroke="#000" stroke-width="1" stroke-linecap="round"/><path d="M 330.6 484.8 L 338.9 478.7 M 330.6 484.8 L 312.3 488.9 M 330.6 484.8 L 328.3 497.4 M 330.6 484.8 L 338.5 491.8 " fill="none" stroke="#000" stroke-width="1" stroke-linecap="round"/><path d="M 338.9 478.7 L 338.5 491.8 M 338.9 478.7 L 347.8 494.6 " fill="none" stroke="#000" stroke-width="1" stroke-linecap="round"/><path d="M 73.4 492.7 L 79.2 504.3 " fill="none" stroke="#000" stroke-width="1" stroke-linecap="round"/><path d="M 93.9 490.8 L 98.2 497.8 M 93.9 490.8 L 88.7 506.2 " fill="none" stroke="#000" stroke-width="1" stroke-linecap="round"/><path d="M 98.2 497.8 L 88.7 506.2 M 98.2 497.8 L 103.3 510.6 " fill="none" stroke="#000" stroke-width="1" stroke-linecap="round"/><path d="M 118.9 488.2 L 130.3 498.1 " fill="none" stroke="#000" stroke-width="1" stroke-linecap="round"/><path d="M 130.3 498.1 L 140.3 490.6 M 130.3 498.1 L 123.4 508.3 M 130.3 498.1 L 134.9 506.2 " fill="none" stroke="#000" stroke-width="1" stroke-linecap="round"/><path d="M 140.3 490.6 L 153.4 491.2 M 140.3 490.6 L 134.9 506.2 " fill="none" stroke="#000" stroke-width="1" stroke-linecap="round"/><path d="M 153.4 491.2 L 171.0 490.0 M 153.4 491.2 L 162.2 501.3 " fill="none" stroke="#000" stroke-width="1" stroke-linecap="round"/><path d="M 171.0 490.0 L 184.4 494.0 M 171.0 490.0 L 162.2 501.3 M 171.0 490.0 L 167.8 508.9 " fill="none" stroke="#000" stroke-width="1" stroke-linecap="round"/><path d="M 184.4 494.0 L 190.8 494.7 M 184.4 494.0 L 182.8 512.6 " fill="none" stroke="#000" stroke-width="1" stroke-linecap="round"/><path d="M 190.8 494.7 L 200.0 508.8 M 190.8 494.7 L 203.4 507.9 " fill="none" stroke="#000" stroke-width="1" stroke-linecap="round"/><path d="M 210.7 493.4 L 225.8 491.5 M 210.7 493.4 L 200.0 508.8 M 210.7 493.4 L 203.4 507.9 M 210.7 493.4 L 217.9 507.1 " fill="none" stroke="#000" stroke-width="1" stroke-linecap="round"/><path d="M 225.8 491.5 L 235.6 491.4 M 225.8 491.5 L 244.4 495.9 M 225.8 491.5 L 217.9 507.1 M 225.8 491.5 L 231.7 502.2 " fill="none" stroke="#000" stroke-width="1" stroke-linecap="round"/><path d="M 235.6 491.4 L 244.4 495.9 M 235.6 491.4 L 231.7 502.2 " fill="none" stroke="#000" stroke-width="1" stroke-linecap="round"/><path d="M 244.4 495.9 L 255.5 494.8 M 244.4 495.9 L 231.7 502.2 M 244.4 495.9 L 240.9 510.8 M 244.4 495.9 L 246.3 514.8 " fill="none" stroke="#000" stroke-width="1" stroke-linecap="round"/><path d="M 255.5 494.8 L 260.4 509.6 " fill="none" stroke="#000" stroke-width="1" stroke-linecap="round"/><path d="M 277.7 496.0 L 286.4 494.1 M 277.7 496.0 L 278.3 509.2 M 277.7 496.0 L 289.0 501.6 " fill="none" stroke="#000" stroke-width="1" stroke-linecap="round"/><path d="M 286.4 494.1 L 300.3 497.7 M 286.4 494.1 L 278.3 509.2 M 286.4 494.1 L 289.0 501.6 M 286.4 494.1 L 298.5 505.0 " fill="none" stroke="#000" stroke-width="1" stroke-linecap="round"/><path d="M 300.3 497.7 L 312.3 488.9 M 300.3 497.7 L 289.0 501.6 M 300.3 497.7 L 298.5 505.0 M 300.3 497.7 L 310.7 505.6 " fill="none" stroke="#000" stroke-width="1" stroke-linecap="round"/><path d="M 312.3 488.9 L 328.3 497.4 M 312.3 488.9 L 310.7 505.6 " fill="none" stroke="#000" stroke-width="1" stroke-linecap="round"/><path d="M 328.3 497.4 L 338.5 491.8 M 328.3 497.4 L 310.7 505.6 M 328.3 497.4 L 320.6 507.8 M 328.3 497.4 L 339.4 509.3 " fill="none" stroke="#000" stroke-width="1" stroke-linecap="round"/><path d="M 338.5 491.8 L 347.8 494.6 M 338.5 491.8 L 339.4 509.3 M 338.5 491.8 L 347.3 505.6 " fill="none" stroke="#000" stroke-width="1" stroke-linecap="round"/><path d="M 347.8 494.6 L 339.4 509.3 M 347.8 494.6 L 347.3 505.6 " fill="none" stroke="#000" stroke-width="1" stroke-linecap="round"/><path d="M 79.2 504.3 L 88.7 506.2 M 79.2 504.3 L 73.8 520.4 " fill="none" stroke="#000" stroke-width="1" stroke-linecap="round"/><path d="M 88.7 506.2 L 103.3 510.6 " fill="none" stroke="#000" stroke-width="1" stroke-linecap="round"/><path d="M 103.3 510.6 L 93.1 525.5 M 103.3 510.6 L 106.9 518.8 " fill="none" stroke="#000" stroke-width="1" stroke-linecap="round"/><path d="M 123.4 508.3 L 134.9 506.2 M 123.4 508.3 L 122.3 519.2 M 123.4 508.3 L 129.9 523.9 " fill="none" stroke="#000" stroke-width="1" stroke-linecap="round"/><path d="M 134.9 506.2 L 148.1 513.4 M 134.9 506.2 L 122.3 519.2 M 134.9 506.2 L 129.9 523.9 M 134.9 506.2 L 143.3 516.5 " fill="none" stroke="#000" stroke-width="1" stroke-linecap="round"/><path d="M 148.1 513.4 L 162.2 501.3 M 148.1 513.4 L 143.3 516.5 M 148.1 513.4 L 161.6 525.0 M 148.1 513.4 L 151.9 531.7 " fill="none" stroke="#000" stroke-width="1" stroke-linecap="round"/><path d="M 162.2 501.3 L 167.8 508.9 " fill="none" stroke="#000" stroke-width="1" stroke-linecap="round"/><path d="M 167.8 508.9 L 182.8 512.6 M 167.8 508.9 L 161.6 525.0 M 167.8 508.9 L 174.0 523.1 M 167.8 508.9 L 179.8 515.0 " fill="none" stroke="#000" stroke-width="1" stroke-linecap="round"/><path d="M 182.8 512.6 L 200.0 508.8 M 182.8 512.6 L 174.0 523.1 M 182.8 512.6 L 179.8 515.0 M 182.8 512.6 L 191.0 521.5 " fill="none" stroke="#000" stroke-width="1" stroke-linecap="round"/><path d="M 200.0 508.8 L 203.4 507.9 M 200.0 508.8 L 217.9 507.1 M 200.0 508.8 L 191.0 521.5 M 200.0 508.8 L 211.3 524.6 " fill="none" stroke="#000" stroke-width="1" stroke-linecap="round"/><path d="M 203.4 507.9 L 217.9 507.1 M 203.4 507.9 L 191.0 521.5 M 203.4 507.9 L 211.3 524.6 " fill="none" stroke="#000" stroke-width="1" stroke-linecap="round"/><path d="M 217.9 507.1 L 231.7 502.2 M 217.9 507.1 L 211.3 524.6 M 217.9 507.1 L 232.1 516.3 " fill="none" stroke="#000" stroke-width="1" stroke-linecap="round"/><path d="M 231.7 502.2 L 240.9 510.8 M 231.7 502.2 L 232.1 516.3 M 231.7 502.2 L 246.3 514.8 " fill="none" stroke="#000" stroke-width="1" stroke-linecap="round"/><path d="M 240.9 510.8 L 232.1 516.3 M 240.9 510.8 L 246.3 514.8 " fill="none" stroke="#000" stroke-width="1" stroke-linecap="round"/><path d="M 260.4 509.6 L 278.3 509.2 M 260.4 509.6 L 246.3 514.8 M 260.4 509.6 L 261.7 517.7 M 260.4 509.6 L 267.1 516.0 " fill="none" stroke="#000" stroke-width="1" stroke-linecap="round"/><path d="M 278.3 509.2 L 289.0 501.6 M 278.3 509.2 L 261.7 517.7 M 278.3 509.2 L 267.1 516.0 M 278.3 509.2 L 287.3 518.7 " fill="none" stroke="#000" stroke-width="1" stroke-linecap="round"/><path d="M 289.0 501.6 L 298.5 505.0 M 289.0 501.6 L 287.3 518.7 " fill="none" stroke="#000" stroke-width="1" stroke-linecap="round"/><path d="M 298.5 505.0 L 310.7 505.6 M 298.5 505.0 L 287.3 518.7 " fill="none" stroke="#000" stroke-width="1" stroke-linecap="round"/><path d="M 310.7 505.6 L 320.6 507.8 M 310.7 505.6 L 320.8 521.9 " fill="none" stroke="#000" stroke-width="1" stroke-linecap="round"/><path d="M 320.6 507.8 L 339.4 509.3 M 320.6 507.8 L 320.8 521.9 M 320.6 507.8 L 337.4 516.6 " fill="none" stroke="#000" stroke-width="1" stroke-linecap="round"/><path d="M 339.4 509.3 L 347.3 505.6 M 339.4 509.3 L 337.4 516.6 M 339.4 509.3 L 345.1 516.2 M 339.4 509.3 L 338.3 527.1 " fill="none" stroke="#000" stroke-width="1" stroke-linecap="round"/><path d="M 347.3 505.6 L 337.4 516.6 M 347.3 505.6 L 345.1 516.2 " fill="none" stroke="#000" stroke-width="1" stroke-linecap="round"/><path d="M 73.8 520.4 L 81.8 533.7 " fill="none" stroke="#000" stroke-width="1" stroke-linecap="round"/><path d="M 93.1 525.5 L 106.9 518.8 M 93.1 525.5 L 81.8 533.7 M 93.1 525.5 L 94.3 536.5 M 93.1 525.5 L 107.8 533.7 " fill="none" stroke="#000" stroke-width="1" stroke-linecap="round"/><path d="M 106.9 518.8 L 122.3 519.2 M 106.9 518.8 L 107.8 533.7 M 106.9 518.8 L 121.6 528.1 " fill="none" stroke="#000" stroke-width="1" stroke-linecap="round"/><path d="M 122.3 519.2 L 129.9 523.9 M 122.3 519.2 L 121.6 528.1 M 122.3 519.2 L 128.7 528.7 " fill="none" stroke="#000" stroke-width="1" stroke-linecap="round"/><path d="M 129.9 523.9 L 143.3 516.5 M 129.9 523.9 L 121.6 528.1 M 129.9 523.9 L 128.7 528.7 M 129.9 523.9 L 142.3 537.8 " fill="none" stroke="#000" stroke-width="1" stroke-linecap="round"/><path d="M 143.3 516.5 L 128.7 528.7 M 143.3 516.5 L 151.9 531.7 " fill="none" stroke="#000" stroke-width="1" stroke-linecap="round"/><path d="M 161.6 525.0 L 174.0 523.1 M 161.6 525.0 L 151.9 531.7 M 161.6 525.0 L 165.2 533.0 " fill="none" stroke="#000" stroke-width="1" stroke-linecap="round"/><path d="M 174.0 523.1 L 179.8 515.0 M 174.0 523.1 L 191.0 521.5 M 174.0 523.1 L 165.2 533.0 M 174.0 523.1 L 180.1 537.8 " fill="none" stroke="#000" stroke-width="1" stroke-linecap="round"/><path d="M 179.8 515.0 L 191.0 521.5 " fill="none" stroke="#000" stroke-width="1" stroke-linecap="round"/><path d="M 191.0 521.5 L 201.4 535.5 " fill="none" stroke="#000" stroke-width="1" stroke-linecap="round"/><path d="M 211.3 524.6 L 201.4 535.5 M 211.3 524.6 L 221.2 527.1 " fill="none" stroke="#000" stroke-width="1" stroke-linecap="round"/><path d="M 232.1 516.3 L 246.3 514.8 M 232.1 516.3 L 221.2 527.1 " fill="none" stroke="#000" stroke-width="1" stroke-linecap="round"/><path d="M 246.3 514.8 L 261.7 517.7 M 246.3 514.8 L 256.8 530.4 " fill="none" stroke="#000" stroke-width="1" stroke-linecap="round"/><path d="M 261.7 517.7 L 267.1 516.0 M 261.7 517.7 L 256.8 530.4 " fill="none" stroke="#000" stroke-width="1" stroke-linecap="round"/><path d="M 267.1 516.0 L 256.8 530.4 " fill="none" stroke="#000" stroke-width="1" stroke-linecap="round"/><path d="M 287.3 518.7 L 296.7 525.8 M 287.3 518.7 L 288.8 534.6 " fill="none" stroke="#000" stroke-width="1" stroke-linecap="round"/><path d="M 296.7 525.8 L 312.0 525.8 M 296.7 525.8 L 288.8 534.6 M 296.7 525.8 L 302.1 537.7 M 296.7 525.8 L 308.0 529.8 " fill="none" stroke="#000" stroke-width="1" stroke-linecap="round"/><path d="M 312.0 525.8 L 320.8 521.9 M 312.0 525.8 L 302.1 537.7 M 312.0 525.8 L 308.0 529.8 M 312.0 525.8 L 298.8 540.0 " fill="none" stroke="#000" stroke-width="1" stroke-linecap="round"/><path d="M 320.8 521.9 L 337.4 516.6 M 320.8 521.9 L 308.0 529.8 M 320.8 521.9 L 329.2 537.6 M 320.8 521.9 L 338.3 527.1 " fill="none" stroke="#000" stroke-width="1" stroke-linecap="round"/><path d="M 337.4 516.6 L 345.1 516.2 M 337.4 516.6 L 338.3 527.1 " fill="none" stroke="#000" stroke-width="1" stroke-linecap="round"/><path d="M 345.1 516.2 L 338.3 527.1 " fill="none" stroke="#000" stroke-width="1" stroke-linecap="round"/><path d="M 81.8 533.7 L 94.3 536.5 M 81.8 533.7 L 74.2 541.2 M 81.8 533.7 L 87.0 545.2 " fill="none" stroke="#000" stroke-width="1" stroke-linecap="round"/><path d="M 94.3 536.5 L 107.8 533.7 M 94.3 536.5 L 87.0 545.2 M 94.3 536.5 L 105.2 552.1 " fill="none" stroke="#000" stroke-width="1" stroke-linecap="round"/><path d="M 107.8 533.7 L 121.6 528.1 M 107.8 533.7 L 105.2 552.1 M 107.8 533.7 L 120.3 543.4 " fill="none" stroke="#000" stroke-width="1" stroke-linecap="round"/><path d="M 121.6 528.1 L 128.7 528.7 M 121.6 528.1 L 120.3 543.4 M 121.6 528.1 L 133.8 539.8 " fill="none" stroke="#000" stroke-width="1" stroke-linecap="round"/><path d="M 128.7 528.7 L 142.3 537.8 M 128.7 528.7 L 120.3 543.4 M 128.7 528.7 L 133.8 539.8 " fill="none" stroke="#000" stroke-width="1" stroke-linecap="round"/><path d="M 142.3 537.8 L 151.9 531.7 M 142.3 537.8 L 133.8 539.8 M 142.3 537.8 L 141.4 547.4 M 142.3 537.8 L 158.7 545.5 " fill="none" stroke="#000" stroke-width="1" stroke-linecap="round"/><path d="M 151.9 531.7 L 165.2 533.0 M 151.9 531.7 L 141.4 547.4 M 151.9 531.7 L 158.7 545.5 " fill="none" stroke="#000" stroke-width="1" stroke-linecap="round"/><path d="M 165.2 533.0 L 180.1 537.8 M 165.2 533.0 L 158.7 545.5 M 165.2 533.0 L 169.7 547.8 " fill="none" stroke="#000" stroke-width="1" stroke-linecap="round"/><path d="M 180.1 537.8 L 169.7 547.8 M 180.1 537.8 L 183.3 540.6 M 180.1 537.8 L 197.5 541.9 M 180.1 537.8 L 178.8 555.7 " fill="none" stroke="#000" stroke-width="1" stroke-linecap="round"/><path d="M 201.4 535.5 L 183.3 540.6 M 201.4 535.5 L 197.5 541.9 M 201.4 535.5 L 210.6 549.6 " fill="none" stroke="#000" stroke-width="1" stroke-linecap="round"/><path d="M 221.2 527.1 L 225.5 540.3 " fill="none" stroke="#000" stroke-width="1" stroke-linecap="round"/><path d="M 239.3 537.2 L 252.1 535.9 M 239.3 537.2 L 256.8 530.4 M 239.3 537.2 L 225.5 540.3 M 239.3 537.2 L 235.6 545.2 " fill="none" stroke="#000" stroke-width="1" stroke-linecap="round"/><path d="M 252.1 535.9 L 256.8 530.4 M 252.1 535.9 L 235.6 545.2 M 252.1 535.9 L 250.4 541.1 M 252.1 535.9 L 263.1 549.9 " fill="none" stroke="#000" stroke-width="1" stroke-linecap="round"/><path d="M 256.8 530.4 L 250.4 541.1 " fill="none" stroke="#000" stroke-width="1" stroke-linecap="round"/><path d="M 276.3 535.2 L 288.8 534.6 M 276.3 535.2 L 286.1 544.0 " fill="none" stroke="#000" stroke-width="1" stroke-linecap="round"/><path d="M 288.8 534.6 L 302.1 537.7 M 288.8 534.6 L 286.1 544.0 M 288.8 534.6 L 298.8 540.0 " fill="none" stroke="#000" stroke-width="1" stroke-linecap="round"/><path d="M 302.1 537.7 L 308.0 529.8 M 302.1 537.7 L 286.1 544.0 M 302.1 537.7 L 298.8 540.0 M 302.1 537.7 L 307.7 547.0 " fill="none" stroke="#000" stroke-width="1" stroke-linecap="round"/><path d="M 308.0 529.8 L 298.8 540.0 M 308.0 529.8 L 307.7 547.0 " fill="none" stroke="#000" stroke-width="1" stroke-linecap="round"/><path d="M 329.2 537.6 L 338.3 527.1 M 329.2 537.6 L 331.1 543.4 M 329.2 537.6 L 337.2 541.8 " fill="none" stroke="#000" stroke-width="1" stroke-linecap="round"/><path d="M 338.3 527.1 L 331.1 543.4 M 338.3 527.1 L 337.2 541.8 " fill="none" stroke="#000" stroke-width="1" stroke-linecap="round"/><path d="M 74.2 541.2 L 87.0 545.2 " fill="none" stroke="#000" stroke-width="1" stroke-linecap="round"/><path d="M 87.0 545.2 L 105.2 552.1 M 87.0 545.2 L 79.1 560.9 M 87.0 545.2 L 86.9 558.6 " fill="none" stroke="#000" stroke-width="1" stroke-linecap="round"/><path d="M 105.2 552.1 L 120.3 543.4 M 105.2 552.1 L 86.9 558.6 M 105.2 552.1 L 105.3 564.2 M 105.2 552.1 L 114.4 562.5 " fill="none" stroke="#000" stroke-width="1" stroke-linecap="round"/><path d="M 120.3 543.4 L 133.8 539.8 M 120.3 543.4 L 123.6 554.0 " fill="none" stroke="#000" stroke-width="1" stroke-linecap="round"/><path d="M 133.8 539.8 L 141.4 547.4 M 133.8 539.8 L 123.6 554.0 " fill="none" stroke="#000" stroke-width="1" stroke-linecap="round"/><path d="M 141.4 547.4 L 158.7 545.5 M 141.4 547.4 L 123.6 554.0 M 141.4 547.4 L 145.8 564.3 M 141.4 547.4 L 155.5 553.8 " fill="none" stroke="#000" stroke-width="1" stroke-linecap="round"/><path d="M 158.7 545.5 L 169.7 547.8 M 158.7 545.5 L 155.5 553.8 M 158.7 545.5 L 162.8 555.8 " fill="none" stroke="#000" stroke-width="1" stroke-linecap="round"/><path d="M 169.7 547.8 L 183.3 540.6 M 169.7 547.8 L 155.5 553.8 M 169.7 547.8 L 162.8 555.8 M 169.7 547.8 L 178.8 555.7 " fill="none" stroke="#000" stroke-width="1" stroke-linecap="round"/><path d="M 183.3 540.6 L 197.5 541.9 M 183.3 540.6 L 178.8 555.7 M 183.3 540.6 L 193.1 553.8 " fill="none" stroke="#000" stroke-width="1" stroke-linecap="round"/><path d="M 197.5 541.9 L 210.6 549.6 M 197.5 541.9 L 193.1 553.8 " fill="none" stroke="#000" stroke-width="1" stroke-linecap="round"/><path d="M 210.6 549.6 L 225.5 540.3 M 210.6 549.6 L 193.1 553.8 M 210.6 549.6 L 202.7 562.1 M 210.6 549.6 L 226.7 555.6 " fill="none" stroke="#000" stroke-width="1" stroke-linecap="round"/><path d="M 225.5 540.3 L 235.6 545.2 M 225.5 540.3 L 226.7 555.6 " fill="none" stroke="#000" stroke-width="1" stroke-linecap="round"/><path d="M 235.6 545.2 L 250.4 541.1 M 235.6 545.2 L 226.7 555.6 M 235.6 545.2 L 241.7 554.6 " fill="none" stroke="#000" stroke-width="1" stroke-linecap="round"/><path d="M 250.4 541.1 L 263.1 549.9 M 250.4 541.1 L 241.7 554.6 " fill="none" stroke="#000" stroke-width="1" stroke-linecap="round"/><path d="M 263.1 549.9 L 261.2 562.7 " fill="none" stroke="#000" stroke-width="1" stroke-linecap="round"/><path d="M 286.1 544.0 L 298.8 540.0 M 286.1 544.0 L 290.2 556.2 M 286.1 544.0 L 295.7 556.8 " fill="none" stroke="#000" stroke-width="1" stroke-linecap="round"/><path d="M 298.8 540.0 L 307.7 547.0 M 298.8 540.0 L 290.2 556.2 M 298.8 540.0 L 295.7 556.8 " fill="none" stroke="#000" stroke-width="1" stroke-linecap="round"/><path d="M 307.7 547.0 L 295.7 556.8 M 307.7 547.0 L 305.8 560.8 " fill="none" stroke="#000" stroke-width="1" stroke-linecap="round"/><path d="M 331.1 543.4 L 337.2 541.8 M 331.1 543.4 L 331.8 561.2 " fill="none" stroke="#000" stroke-width="1" stroke-linecap="round"/><path d="M 79.1 560.9 L 86.9 558.6 M 79.1 560.9 L 95.6 569.4 " fill="none" stroke="#000" stroke-width="1" stroke-linecap="round"/><path d="M 86.9 558.6 L 105.3 564.2 M 86.9 558.6 L 95.6 569.4 " fill="none" stroke="#000" stroke-width="1" stroke-linecap="round"/><path d="M 105.3 564.2 L 114.4 562.5 M 105.3 564.2 L 95.6 569.4 M 105.3 564.2 L 108.6 569.8 M 105.3 564.2 L 121.4 574.7 " fill="none" stroke="#000" stroke-width="1" stroke-linecap="round"/><path d="M 114.4 562.5 L 123.6 554.0 M 114.4 562.5 L 108.6 569.8 M 114.4 562.5 L 121.4 574.7 " fill="none" stroke="#000" stroke-width="1" stroke-linecap="round"/><path d="M 145.8 564.3 L 155.5 553.8 M 145.8 564.3 L 162.8 555.8 M 145.8 564.3 L 133.5 577.3 M 145.8 564.3 L 142.9 573.0 " fill="none" stroke="#000" stroke-width="1" stroke-linecap="round"/><path d="M 155.5 553.8 L 162.8 555.8 M 155.5 553.8 L 150.4 566.7 " fill="none" stroke="#000" stroke-width="1" stroke-linecap="round"/><path d="M 162.8 555.8 L 178.8 555.7 M 162.8 555.8 L 150.4 566.7 " fill="none" stroke="#000" stroke-width="1" stroke-linecap="round"/><path d="M 178.8 555.7 L 193.1 553.8 " fill="none" stroke="#000" stroke-width="1" stroke-linecap="round"/><path d="M 193.1 553.8 L 202.7 562.1 " fill="none" stroke="#000" stroke-width="1" stroke-linecap="round"/><path d="M 202.7 562.1 L 194.1 575.6 M 202.7 562.1 L 197.4 580.2 " fill="none" stroke="#000" stroke-width="1" stroke-linecap="round"/><path d="M 226.7 555.6 L 241.7 554.6 " fill="none" stroke="#000" stroke-width="1" stroke-linecap="round"/><path d="M 261.2 562.7 L 251.4 575.7 M 261.2 562.7 L 264.1 572.1 M 261.2 562.7 L 274.9 567.2 " fill="none" stroke="#000" stroke-width="1" stroke-linecap="round"/><path d="M 290.2 556.2 L 295.7 556.8 M 290.2 556.2 L 305.8 560.8 M 290.2 556.2 L 274.9 567.2 M 290.2 556.2 L 280.3 567.2 " fill="none" stroke="#000" stroke-width="1" stroke-linecap="round"/><path d="M 295.7 556.8 L 305.8 560.8 M 295.7 556.8 L 280.3 567.2 " fill="none" stroke="#000" stroke-width="1" stroke-linecap="round"/><path d="M 305.8 560.8 L 322.0 565.2 M 305.8 560.8 L 298.1 576.6 " fill="none" stroke="#000" stroke-width="1" stroke-linecap="round"/><path d="M 322.0 565.2 L 331.8 561.2 M 322.0 565.2 L 316.7 577.3 M 322.0 565.2 L 326.4 567.1 M 322.0 565.2 L 329.5 583.1 " fill="none" stroke="#000" stroke-width="1" stroke-linecap="round"/><path d="M 331.8 561.2 L 326.4 567.1 M 331.8 561.2 L 343.9 569.5 " fill="none" stroke="#000" stroke-width="1" stroke-linecap="round"/><path d="M 95.6 569.4 L 108.6 569.8 " fill="none" stroke="#000" stroke-width="1" stroke-linecap="round"/><path d="M 108.6 569.8 L 121.4 574.7 " fill="none" stroke="#000" stroke-width="1" stroke-linecap="round"/><path d="M 121.4 574.7 L 133.5 577.3 M 121.4 574.7 L 128.7 587.5 " fill="none" stroke="#000" stroke-width="1" stroke-linecap="round"/><path d="M 133.5 577.3 L 142.9 573.0 M 133.5 577.3 L 128.7 587.5 M 133.5 577.3 L 146.8 588.3 M 133.5 577.3 L 152.2 579.8 " fill="none" stroke="#000" stroke-width="1" stroke-linecap="round"/><path d="M 142.9 573.0 L 150.4 566.7 M 142.9 573.0 L 146.8 588.3 M 142.9 573.0 L 152.2 579.8 " fill="none" stroke="#000" stroke-width="1" stroke-linecap="round"/><path d="M 150.4 566.7 L 163.7 575.5 M 150.4 566.7 L 152.2 579.8 " fill="none" stroke="#000" stroke-width="1" stroke-linecap="round"/><path d="M 163.7 575.5 L 152.2 579.8 M 163.7 575.5 L 174.2 584.1 " fill="none" stroke="#000" stroke-width="1" stroke-linecap="round"/><path d="M 187.6 578.4 L 194.1 575.6 M 187.6 578.4 L 174.2 584.1 M 187.6 578.4 L 181.7 588.3 M 187.6 578.4 L 197.4 580.2 " fill="none" stroke="#000" stroke-width="1" stroke-linecap="round"/><path d="M 194.1 575.6 L 181.7 588.3 M 194.1 575.6 L 197.4 580.2 M 194.1 575.6 L 202.1 592.3 " fill="none" stroke="#000" stroke-width="1" stroke-linecap="round"/><path d="M 251.4 575.7 L 264.1 572.1 M 251.4 575.7 L 242.4 581.2 M 251.4 575.7 L 257.3 582.9 M 251.4 575.7 L 267.0 582.1 " fill="none" stroke="#000" stroke-width="1" stroke-linecap="round"/><path d="M 264.1 572.1 L 274.9 567.2 M 264.1 572.1 L 280.3 567.2 M 264.1 572.1 L 257.3 582.9 M 264.1 572.1 L 267.0 582.1 " fill="none" stroke="#000" stroke-width="1" stroke-linecap="round"/><path d="M 274.9 567.2 L 280.3 567.2 M 274.9 567.2 L 267.0 582.1 " fill="none" stroke="#000" stroke-width="1" stroke-linecap="round"/><path d="M 280.3 567.2 L 288.8 584.7 " fill="none" stroke="#000" stroke-width="1" stroke-linecap="round"/><path d="M 298.1 576.6 L 316.7 577.3 M 298.1 576.6 L 288.8 584.7 M 298.1 576.6 L 296.4 582.7 M 298.1 576.6 L 316.0 584.3 " fill="none" stroke="#000" stroke-width="1" stroke-linecap="round"/><path d="M 316.7 577.3 L 326.4 567.1 M 316.7 577.3 L 316.0 584.3 M 316.7 577.3 L 329.5 583.1 " fill="none" stroke="#000" stroke-width="1" stroke-linecap="round"/><path d="M 326.4 567.1 L 343.9 569.5 M 326.4 567.1 L 329.5 583.1 " fill="none" stroke="#000" stroke-width="1" stroke-linecap="round"/><path d="M 343.9 569.5 L 341.3 584.5 " fill="none" stroke="#000" stroke-width="1" stroke-linecap="round"/><path d="M 128.7 587.5 L 146.8 588.3 M 128.7 587.5 L 123.6 605.5 " fill="none" stroke="#000" stroke-width="1" stroke-linecap="round"/><path d="M 146.8 588.3 L 152.2 579.8 M 146.8 588.3 L 146.9 599.0 M 146.8 588.3 L 151.7 603.1 M 146.8 588.3 L 146.4 606.3 " fill="none" stroke="#000" stroke-width="1" stroke-linecap="round"/><path d="M 174.2 584.1 L 181.7 588.3 M 174.2 584.1 L 168.0 602.4 M 174.2 584.1 L 176.0 596.0 " fill="none" stroke="#000" stroke-width="1" stroke-linecap="round"/><path d="M 181.7 588.3 L 197.4 580.2 M 181.7 588.3 L 176.0 596.0 M 181.7 588.3 L 190.2 597.9 " fill="none" stroke="#000" stroke-width="1" stroke-linecap="round"/><path d="M 197.4 580.2 L 210.7 591.3 M 197.4 580.2 L 190.2 597.9 M 197.4 580.2 L 202.1 592.3 " fill="none" stroke="#000" stroke-width="1" stroke-linecap="round"/><path d="M 210.7 591.3 L 224.1 590.3 M 210.7 591.3 L 228.2 590.5 M 210.7 591.3 L 202.1 592.3 M 210.7 591.3 L 224.9 593.0 " fill="none" stroke="#000" stroke-width="1" stroke-linecap="round"/><path d="M 224.1 590.3 L 228.2 590.5 M 224.1 590.3 L 224.9 593.0 M 224.1 590.3 L 231.2 594.2 " fill="none" stroke="#000" stroke-width="1" stroke-linecap="round"/><path d="M 228.2 590.5 L 242.4 581.2 M 228.2 590.5 L 224.9 593.0 M 228.2 590.5 L 231.2 594.2 " fill="none" stroke="#000" stroke-width="1" stroke-linecap="round"/><path d="M 242.4 581.2 L 257.3 582.9 M 242.4 581.2 L 231.2 594.2 " fill="none" stroke="#000" stroke-width="1" stroke-linecap="round"/><path d="M 257.3 582.9 L 267.0 582.1 " fill="none" stroke="#000" stroke-width="1" stroke-linecap="round"/><path d="M 267.0 582.1 L 272.4 596.6 " fill="none" stroke="#000" stroke-width="1" stroke-linecap="round"/><path d="M 288.8 584.7 L 296.4 582.7 M 288.8 584.7 L 290.5 600.3 M 288.8 584.7 L 298.9 596.3 " fill="none" stroke="#000" stroke-width="1" stroke-linecap="round"/><path d="M 296.4 582.7 L 290.5 600.3 M 296.4 582.7 L 298.9 596.3 " fill="none" stroke="#000" stroke-width="1" stroke-linecap="round"/><path d="M 316.0 584.3 L 329.5 583.1 M 316.0 584.3 L 308.9 599.1 M 316.0 584.3 L 327.9 595.4 " fill="none" stroke="#000" stroke-width="1" stroke-linecap="round"/><path d="M 329.5 583.1 L 341.3 584.5 M 329.5 583.1 L 327.9 595.4 " fill="none" stroke="#000" stroke-width="1" stroke-linecap="round"/><path d="M 341.3 584.5 L 327.9 595.4 " fill="none" stroke="#000" stroke-width="1" stroke-linecap="round"/><path d="M 146.9 599.0 L 151.7 603.1 M 146.9 599.0 L 146.4 606.3 M 146.9 599.0 L 150.7 607.3 " fill="none" stroke="#000" stroke-width="1" stroke-linecap="round"/><path d="M 151.7 603.1 L 168.0 602.4 M 151.7 603.1 L 146.4 606.3 M 151.7 603.1 L 150.7 607.3 M 151.7 603.1 L 165.3 611.3 " fill="none" stroke="#000" stroke-width="1" stroke-linecap="round"/><path d="M 168.0 602.4 L 176.0 596.0 M 168.0 602.4 L 150.7 607.3 M 168.0 602.4 L 165.3 611.3 M 168.0 602.4 L 182.0 609.5 " fill="none" stroke="#000" stroke-width="1" stroke-linecap="round"/><path d="M 176.0 596.0 L 190.2 597.9 M 176.0 596.0 L 165.3 611.3 M 176.0 596.0 L 182.0 609.5 " fill="none" stroke="#000" stroke-width="1" stroke-linecap="round"/><path d="M 190.2 597.9 L 202.1 592.3 M 190.2 597.9 L 182.0 609.5 M 190.2 597.9 L 195.7 604.8 " fill="none" stroke="#000" stroke-width="1" stroke-linecap="round"/><path d="M 202.1 592.3 L 195.7 604.8 " fill="none" stroke="#000" stroke-width="1" stroke-linecap="round"/><path d="M 224.9 593.0 L 231.2 594.2 M 224.9 593.0 L 222.1 611.3 " fill="none" stroke="#000" stroke-width="1" stroke-linecap="round"/><path d="M 231.2 594.2 L 222.1 611.3 " fill="none" stroke="#000" stroke-width="1" stroke-linecap="round"/><path d="M 250.0 602.6 L 265.0 603.5 M 250.0 602.6 L 237.0 616.0 M 250.0 602.6 L 248.3 610.2 M 250.0 602.6 L 264.5 607.3 " fill="none" stroke="#000" stroke-width="1" stroke-linecap="round"/><path d="M 265.0 603.5 L 272.4 596.6 M 265.0 603.5 L 248.3 610.2 M 265.0 603.5 L 264.5 607.3 M 265.0 603.5 L 267.6 610.7 " fill="none" stroke="#000" stroke-width="1" stroke-linecap="round"/><path d="M 272.4 596.6 L 290.5 600.3 M 272.4 596.6 L 264.5 607.3 M 272.4 596.6 L 267.6 610.7 " fill="none" stroke="#000" stroke-width="1" stroke-linecap="round"/><path d="M 290.5 600.3 L 298.9 596.3 M 290.5 600.3 L 308.9 599.1 M 290.5 600.3 L 282.6 617.5 M 290.5 600.3 L 296.4 617.0 " fill="none" stroke="#000" stroke-width="1" stroke-linecap="round"/><path d="M 298.9 596.3 L 308.9 599.1 " fill="none" stroke="#000" stroke-width="1" stroke-linecap="round"/><path d="M 308.9 599.1 L 327.9 595.4 M 308.9 599.1 L 314.3 617.3 " fill="none" stroke="#000" stroke-width="1" stroke-linecap="round"/><path d="M 327.9 595.4 L 329.2 609.6 " fill="none" stroke="#000" stroke-width="1" stroke-linecap="round"/><path d="M 123.6 605.5 L 123.9 621.7 " fill="none" stroke="#000" stroke-width="1" stroke-linecap="round"/><path d="M 146.4 606.3 L 150.7 607.3 " fill="none" stroke="#000" stroke-width="1" stroke-linecap="round"/><path d="M 150.7 607.3 L 165.3 611.3 " fill="none" stroke="#000" stroke-width="1" stroke-linecap="round"/><path d="M 165.3 611.3 L 182.0 609.5 M 165.3 611.3 L 164.5 625.6 M 165.3 611.3 L 178.5 619.6 " fill="none" stroke="#000" stroke-width="1" stroke-linecap="round"/><path d="M 182.0 609.5 L 195.7 604.8 M 182.0 609.5 L 178.5 619.6 M 182.0 609.5 L 193.6 621.6 " fill="none" stroke="#000" stroke-width="1" stroke-linecap="round"/><path d="M 195.7 604.8 L 206.5 612.7 M 195.7 604.8 L 193.6 621.6 " fill="none" stroke="#000" stroke-width="1" stroke-linecap="round"/><path d="M 206.5 612.7 L 222.1 611.3 M 206.5 612.7 L 193.6 621.6 M 206.5 612.7 L 205.5 627.9 " fill="none" stroke="#000" stroke-width="1" stroke-linecap="round"/><path d="M 222.1 611.3 L 237.0 616.0 M 222.1 611.3 L 227.1 625.6 " fill="none" stroke="#000" stroke-width="1" stroke-linecap="round"/><path d="M 237.0 616.0 L 248.3 610.2 M 237.0 616.0 L 227.1 625.6 M 237.0 616.0 L 231.1 628.6 M 237.0 616.0 L 242.0 618.3 " fill="none" stroke="#000" stroke-width="1" stroke-linecap="round"/><path d="M 248.3 610.2 L 264.5 607.3 M 248.3 610.2 L 267.6 610.7 M 248.3 610.2 L 242.0 618.3 " fill="none" stroke="#000" stroke-width="1" stroke-linecap="round"/><path d="M 264.5 607.3 L 267.6 610.7 M 264.5 607.3 L 263.1 626.4 " fill="none" stroke="#000" stroke-width="1" stroke-linecap="round"/><path d="M 267.6 610.7 L 282.6 617.5 M 267.6 610.7 L 263.1 626.4 M 267.6 610.7 L 274.2 628.2 " fill="none" stroke="#000" stroke-width="1" stroke-linecap="round"/><path d="M 282.6 617.5 L 296.4 617.0 M 282.6 617.5 L 274.2 628.2 M 282.6 617.5 L 284.5 624.8 M 282.6 617.5 L 292.9 630.3 " fill="none" stroke="#000" stroke-width="1" stroke-linecap="round"/><path d="M 296.4 617.0 L 314.3 617.3 M 296.4 617.0 L 284.5 624.8 M 296.4 617.0 L 292.9 630.3 " fill="none" stroke="#000" stroke-width="1" stroke-linecap="round"/><path d="M 314.3 617.3 L 329.2 609.6 M 314.3 617.3 L 316.6 623.8 M 314.3 617.3 L 329.9 627.6 M 314.3 617.3 L 316.9 635.2 " fill="none" stroke="#000" stroke-width="1" stroke-linecap="round"/><path d="M 329.2 609.6 L 316.6 623.8 M 329.2 609.6 L 329.9 627.6 " fill="none" stroke="#000" stroke-width="1" stroke-linecap="round"/><path d="M 123.9 621.7 L 140.3 626.2 M 123.9 621.7 L 128.9 634.1 " fill="none" stroke="#000" stroke-width="1" stroke-linecap="round"/><path d="M 140.3 626.2 L 128.9 634.1 M 140.3 626.2 L 141.9 638.5 M 140.3 626.2 L 157.5 635.2 " fill="none" stroke="#000" stroke-width="1" stroke-linecap="round"/><path d="M 160.7 630.3 L 164.5 625.6 M 160.7 630.3 L 157.5 635.2 M 160.7 630.3 L 166.4 633.8 " fill="none" stroke="#000" stroke-width="1" stroke-linecap="round"/><path d="M 164.5 625.6 L 178.5 619.6 M 164.5 625.6 L 157.5 635.2 M 164.5 625.6 L 166.4 633.8 " fill="none" stroke="#000" stroke-width="1" stroke-linecap="round"/><path d="M 178.5 619.6 L 193.6 621.6 M 178.5 619.6 L 166.4 633.8 " fill="none" stroke="#000" stroke-width="1" stroke-linecap="round"/><path d="M 193.6 621.6 L 205.5 627.9 M 193.6 621.6 L 196.2 634.3 " fill="none" stroke="#000" stroke-width="1" stroke-linecap="round"/><path d="M 205.5 627.9 L 196.2 634.3 M 205.5 627.9 L 211.2 635.0 " fill="none" stroke="#000" stroke-width="1" stroke-linecap="round"/><path d="M 227.1 625.6 L 231.1 628.6 M 227.1 625.6 L 242.0 618.3 M 227.1 625.6 L 211.2 635.0 M 227.1 625.6 L 221.8 640.9 " fill="none" stroke="#000" stroke-width="1" stroke-linecap="round"/><path d="M 231.1 628.6 L 242.0 618.3 M 231.1 628.6 L 221.8 640.9 M 231.1 628.6 L 234.3 637.8 " fill="none" stroke="#000" stroke-width="1" stroke-linecap="round"/><path d="M 263.1 626.4 L 274.2 628.2 M 263.1 626.4 L 260.5 640.9 M 263.1 626.4 L 273.2 637.8 " fill="none" stroke="#000" stroke-width="1" stroke-linecap="round"/><path d="M 274.2 628.2 L 284.5 624.8 M 274.2 628.2 L 292.9 630.3 M 274.2 628.2 L 260.5 640.9 M 274.2 628.2 L 273.2 637.8 " fill="none" stroke="#000" stroke-width="1" stroke-linecap="round"/><path d="M 284.5 624.8 L 292.9 630.3 M 284.5 624.8 L 273.2 637.8 M 284.5 624.8 L 286.5 634.6 " fill="none" stroke="#000" stroke-width="1" stroke-linecap="round"/><path d="M 292.9 630.3 L 286.5 634.6 M 292.9 630.3 L 296.3 640.4 " fill="none" stroke="#000" stroke-width="1" stroke-linecap="round"/><path d="M 316.6 623.8 L 329.9 627.6 M 316.6 623.8 L 316.9 635.2 M 316.6 623.8 L 319.2 641.2 " fill="none" stroke="#000" stroke-width="1" stroke-linecap="round"/><path d="M 329.9 627.6 L 316.9 635.2 M 329.9 627.6 L 319.2 641.2 " fill="none" stroke="#000" stroke-width="1" stroke-linecap="round"/><path d="M 128.9 634.1 L 141.9 638.5 " fill="none" stroke="#000" stroke-width="1" stroke-linecap="round"/><path d="M 141.9 638.5 L 157.5 635.2 " fill="none" stroke="#000" stroke-width="1" stroke-linecap="round"/><path d="M 157.5 635.2 L 166.4 633.8 " fill="none" stroke="#000" stroke-width="1" stroke-linecap="round"/><path d="M 166.4 633.8 L 180.8 640.2 " fill="none" stroke="#000" stroke-width="1" stroke-linecap="round"/><path d="M 180.8 640.2 L 196.2 634.3 " fill="none" stroke="#000" stroke-width="1" stroke-linecap="round"/><path d="M 196.2 634.3 L 211.2 635.0 " fill="none" stroke="#000" stroke-width="1" stroke-linecap="round"/><path d="M 211.2 635.0 L 221.8 640.9 " fill="none" stroke="#000" stroke-width="1" stroke-linecap="round"/><path d="M 221.8 640.9 L 234.3 637.8 " fill="none" stroke="#000" stroke-width="1" stroke-linecap="round"/><path d="M 234.3 637.8 L 250.6 642.2 " fill="none" stroke="#000" stroke-width="1" stroke-linecap="round"/><path d="M 250.6 642.2 L 260.5 640.9 " fill="none" stroke="#000" stroke-width="1" stroke-linecap="round"/><path d="M 260.5 640.9 L 273.2 637.8 " fill="none" stroke="#000" stroke-width="1" stroke-linecap="round"/><path d="M 273.2 637.8 L 286.5 634.6 " fill="none" stroke="#000" stroke-width="1" stroke-linecap="round"/><path d="M 286.5 634.6 L 296.3 640.4 " fill="none" stroke="#000" stroke-width="1" stroke-linecap="round"/><path d="M 316.9 635.2 L 319.2 641.2 " fill="none" stroke="#000" stroke-width="1" stroke-linecap="round"/></svg>